<svg width="142" height="142" viewBox="0 0 142 142" fill="none" xmlns="http://www.w3.org/2000/svg">
<circle cx="71" cy="71" r="71" fill="#F3E584"/>
<path d="M50.3906 44.625C51.7344 44.625 53.1719 44.5 54.7031 44.25C56.2656 43.9688 57.6719 43.5156 58.9219 42.8906C60.2031 42.2344 61.2656 41.3594 62.1094 40.2656C62.9531 39.1406 63.375 37.7031 63.375 35.9531H85.0781V82.5469C85.0781 84.6406 85.5781 86.0156 86.5781 86.6719C87.6094 87.2969 88.9219 87.6094 90.5156 87.6094H93.7031V105H51.375V87.6094H55.125C56.7812 87.6094 58 87.0938 58.7812 86.0625C59.5938 85 60 83.8594 60 82.6406V60.0938H50.3906V44.625Z" fill="white"/>
</svg>
