<svg width="142" height="142" viewBox="0 0 142 142" fill="none" xmlns="http://www.w3.org/2000/svg">
<circle cx="71" cy="71" r="71" fill="#F3E584"/>
<path d="M55.1094 92.7188C55.7344 91.9375 56.5625 91.0938 57.5938 90.1875C58.625 89.25 59.8125 88.3906 61.1562 87.6094C62.5 86.7969 64.0156 86.125 65.7031 85.5938C67.3906 85.0312 69.2344 84.75 71.2344 84.75C73.2656 84.75 74.9844 84.8594 76.3906 85.0781C77.7969 85.2969 79.0781 85.5312 80.2344 85.7812C81.3906 86 82.4844 86.2188 83.5156 86.4375C84.5469 86.6562 85.6875 86.7656 86.9375 86.7656C89.3125 86.7656 91.1719 86.25 92.5156 85.2188C93.8594 84.1875 94.5312 82.2656 94.5312 79.4531H103.766C103.766 85.4219 103.203 90.1719 102.078 93.7031C100.953 97.2031 99.4062 99.875 97.4375 101.719C95.5 103.531 93.1875 104.688 90.5 105.188C87.8125 105.688 84.9375 105.938 81.875 105.938C79.4375 105.938 77.0781 105.703 74.7969 105.234C72.5469 104.766 70.375 104.266 68.2812 103.734C66.2188 103.172 64.2344 102.656 62.3281 102.188C60.4531 101.688 58.6875 101.438 57.0312 101.438C55.5938 101.438 54.4531 101.641 53.6094 102.047C52.7969 102.422 52.1406 102.828 51.6406 103.266C51.0469 103.797 50.5938 104.375 50.2812 105H39.5469C39.5469 100.312 40.0625 96.2656 41.0938 92.8594C42.1562 89.4219 43.5469 86.4375 45.2656 83.9062C47.0156 81.3438 49 79.1562 51.2188 77.3438C53.4688 75.5 55.75 73.8906 58.0625 72.5156C60.375 71.1406 62.6406 69.9062 64.8594 68.8125C67.1094 67.7188 69.0938 66.5938 70.8125 65.4375C72.5625 64.2812 73.9531 63.0312 74.9844 61.6875C76.0469 60.3438 76.5781 58.75 76.5781 56.9062C76.5781 54.1562 75.5 52.1094 73.3438 50.7656C71.2188 49.4219 68.6562 48.75 65.6562 48.75C63.5312 48.75 61.625 48.9062 59.9375 49.2188C58.25 49.5312 56.6406 50.0781 55.1094 50.8594C57.0156 51.4219 58.6719 52.3281 60.0781 53.5781C61.4844 54.8281 62.1875 56.6719 62.1875 59.1094C62.1875 60.2031 61.9375 61.2656 61.4375 62.2969C60.9688 63.2969 60.2656 64.2188 59.3281 65.0625C58.4219 65.9062 57.2656 66.5625 55.8594 67.0312C54.4531 67.5 52.8594 67.7344 51.0781 67.7344C49.7344 67.7344 48.3438 67.5156 46.9062 67.0781C45.5 66.6406 44.2188 65.9375 43.0625 64.9688C41.9375 64 41 62.7344 40.25 61.1719C39.5312 59.6094 39.1719 57.7031 39.1719 55.4531C39.1719 52.4531 39.9688 49.7031 41.5625 47.2031C43.1562 44.7031 45.3906 42.5469 48.2656 40.7344C51.1406 38.8906 54.5938 37.4844 58.625 36.5156C62.6562 35.5156 67.0781 35.0156 71.8906 35.0156C77.0156 35.0156 81.5312 35.5625 85.4375 36.6562C89.3438 37.75 92.625 39.2656 95.2812 41.2031C97.9375 43.1094 99.9375 45.3438 101.281 47.9062C102.625 50.4375 103.297 53.1562 103.297 56.0625C103.297 59.5625 102.734 62.4844 101.609 64.8281C100.484 67.1719 98.9531 69.1094 97.0156 70.6406C95.1094 72.1719 92.9062 73.4375 90.4062 74.4375C87.9062 75.4062 85.2812 76.2656 82.5312 77.0156C79.7812 77.7656 77 78.5156 74.1875 79.2656C71.375 79.9844 68.7031 80.9062 66.1719 82.0312C63.6406 83.125 61.3281 84.5 59.2344 86.1562C57.1719 87.7812 55.5312 89.875 54.3125 92.4375L55.1094 92.7188Z" fill="white"/>
</svg>
