<svg width="142" height="142" viewBox="0 0 142 142" fill="none" xmlns="http://www.w3.org/2000/svg">
<circle cx="71" cy="71" r="71" fill="#F3E584"/>
<path d="M69.0312 48.6562C65.8125 48.6562 63.4219 49.0156 61.8594 49.7344C60.2969 50.4219 59.125 51.0781 58.3438 51.7031C59 51.7656 59.7188 51.9375 60.5 52.2188C61.3125 52.4688 62.0469 52.8594 62.7031 53.3906C63.3906 53.8906 63.9531 54.5938 64.3906 55.5C64.8594 56.375 65.0938 57.4844 65.0938 58.8281C65.0938 61.3281 64.1875 63.3281 62.375 64.8281C60.5938 66.3281 57.9688 67.0781 54.5 67.0781C52.8438 67.0781 51.2656 66.8281 49.7656 66.3281C48.2656 65.7969 46.9375 65.0156 45.7812 63.9844C44.625 62.9219 43.7031 61.625 43.0156 60.0938C42.3594 58.5312 42.0312 56.7031 42.0312 54.6094C42.0312 51.6719 42.7656 49 44.2344 46.5938C45.7031 44.1875 47.8125 42.125 50.5625 40.4062C53.3125 38.6562 56.6406 37.3281 60.5469 36.4219C64.4531 35.4844 68.8438 35.0156 73.7188 35.0156C77.75 35.0156 81.7188 35.3281 85.625 35.9531C89.5312 36.5469 93 37.5781 96.0312 39.0469C99.0625 40.5156 101.5 42.4531 103.344 44.8594C105.219 47.2656 106.156 50.2188 106.156 53.7188C106.156 58.0938 104.859 61.6094 102.266 64.2656C99.6719 66.9219 95.75 68.6875 90.5 69.5625V70.0781C95.75 70.7031 99.9844 72.4062 103.203 75.1875C106.453 77.9688 108.078 81.9844 108.078 87.2344C108.078 89.4844 107.484 91.7812 106.297 94.125C105.109 96.4375 103.156 98.5469 100.438 100.453C97.7188 102.328 94.1562 103.875 89.75 105.094C85.3438 106.312 79.9375 106.922 73.5312 106.922C67.4375 106.922 62.2656 106.281 58.0156 105C53.7656 103.719 50.3125 102.078 47.6562 100.078C45 98.0469 43.0781 95.75 41.8906 93.1875C40.7031 90.625 40.1094 88.0312 40.1094 85.4062C40.1094 83.3125 40.4219 81.4375 41.0469 79.7812C41.7031 78.0938 42.5938 76.6875 43.7188 75.5625C44.8438 74.4375 46.1562 73.5938 47.6562 73.0312C49.1562 72.4688 50.7344 72.1875 52.3906 72.1875C54.5156 72.1875 56.2969 72.4688 57.7344 73.0312C59.1719 73.5938 60.3125 74.3125 61.1562 75.1875C62.0312 76.0625 62.6562 77.0312 63.0312 78.0938C63.4375 79.125 63.6406 80.125 63.6406 81.0938C63.6406 83.7188 62.8438 85.7344 61.25 87.1406C59.6875 88.5469 57.9531 89.5469 56.0469 90.1406C59.1719 92.0469 63.3906 93 68.7031 93C73.0781 93 76.2812 92.1719 78.3125 90.5156C80.375 88.8594 81.4062 86.4844 81.4062 83.3906C81.4062 81.8594 81.0938 80.5469 80.4688 79.4531C79.875 78.3594 79.0781 77.4844 78.0781 76.8281C77.0781 76.1406 75.9375 75.6406 74.6562 75.3281C73.375 75.0156 72.0938 74.8594 70.8125 74.8594H67.4844V64.6875H70.8125C73.9062 64.6875 76.2188 63.9219 77.75 62.3906C79.2812 60.8594 80.0469 59.0625 80.0469 57C80.0469 55.4062 79.7344 54.0625 79.1094 52.9688C78.5156 51.875 77.7188 51.0156 76.7188 50.3906C75.75 49.7344 74.5938 49.2812 73.25 49.0312C71.9062 48.7812 70.5 48.6562 69.0312 48.6562Z" fill="white"/>
</svg>
