<svg width="142" height="142" viewBox="0 0 142 142" fill="none" xmlns="http://www.w3.org/2000/svg">
<circle cx="71" cy="71" r="71" fill="#F3E584"/>
<path d="M39.9219 67.6406L70.1562 35.9531H96.1719V71.6719H106.719V81.8438H96.1719V83.4844C96.1719 84.5781 96.25 85.4062 96.4062 85.9688C96.5625 86.5 96.8281 86.8906 97.2031 87.1406C97.6094 87.3906 98.0938 87.5312 98.6562 87.5625C99.25 87.5938 99.9219 87.6094 100.672 87.6094H102.875V105H63.4531V87.6094H66.2188C67.875 87.6094 68.9375 87.25 69.4062 86.5312C69.9062 85.7812 70.1562 84.7969 70.1562 83.5781V81.8438H39.9219V67.6406ZM52.6719 71.6719H70.1562V52.9688L52.6719 71.6719Z" fill="white"/>
</svg>
