<svg width="142" height="142" viewBox="0 0 142 142" fill="none" xmlns="http://www.w3.org/2000/svg">
<circle cx="71" cy="71" r="71" fill="#F3E584"/>
<path d="M66.0312 93.4688C70.25 93.4688 73.4062 92.3594 75.5 90.1406C77.625 87.8906 78.6875 85.0312 78.6875 81.5625C78.6875 77.9375 77.5156 75.1719 75.1719 73.2656C72.8594 71.3281 69.7188 70.3594 65.75 70.3594C63.125 70.3594 61.0156 70.625 59.4219 71.1562C57.8281 71.6875 56.6406 72.125 55.8594 72.4688H44.1406V35.0156H46.1562C48.5938 35.4531 50.75 35.8125 52.625 36.0938C54.5312 36.3438 56.4375 36.5312 58.3438 36.6562C60.2812 36.7812 62.3438 36.8594 64.5312 36.8906C66.75 36.9219 69.3594 36.9375 72.3594 36.9375C75.8906 36.9375 79 36.9062 81.6875 36.8438C84.375 36.7812 86.75 36.6875 88.8125 36.5625C90.9062 36.4375 92.7812 36.25 94.4375 36C96.0938 35.7188 97.6719 35.3906 99.1719 35.0156L101.469 35.9531C100.812 38.6719 99.9531 41.1875 98.8906 43.5C97.8594 45.7812 96.2969 47.7344 94.2031 49.3594C92.1406 50.9844 89.3594 52.2656 85.8594 53.2031C82.3594 54.1406 77.8906 54.6094 72.4531 54.6094C69.2656 54.6094 66.7812 54.5312 65 54.375C63.25 54.2188 61.7969 54 60.6406 53.7188V59.9531C61.2344 59.7656 61.8438 59.6094 62.4688 59.4844C63.125 59.3594 63.875 59.2344 64.7188 59.1094C65.5938 58.9844 66.6094 58.8906 67.7656 58.8281C68.9219 58.7656 70.2969 58.7344 71.8906 58.7344C77.8906 58.7344 82.9219 59.3906 86.9844 60.7031C91.0781 62.0156 94.3281 63.8125 96.7344 66.0938C99.1719 68.3438 100.906 70.9688 101.938 73.9688C102.969 76.9375 103.484 80.0781 103.484 83.3906C103.484 86.7969 102.828 89.9219 101.516 92.7656C100.203 95.6094 98.1875 98.0938 95.4688 100.219C92.75 102.312 89.2969 103.953 85.1094 105.141C80.9531 106.328 76 106.922 70.25 106.922C60.5938 106.922 53.0469 105.25 47.6094 101.906C42.1719 98.5312 39.4531 93.7656 39.4531 87.6094C39.4531 85.3906 39.7969 83.4531 40.4844 81.7969C41.2031 80.1094 42.1406 78.75 43.2969 77.7188C44.4531 76.6562 45.7656 75.875 47.2344 75.375C48.7031 74.8438 50.1719 74.5781 51.6406 74.5781C55.2969 74.5781 58.0156 75.3438 59.7969 76.875C61.5781 78.4062 62.4688 80.3906 62.4688 82.8281C62.4688 85.2656 61.7656 87.1094 60.3594 88.3594C58.9531 89.6094 57.2969 90.5156 55.3906 91.0781C56.9219 91.8594 58.5469 92.4531 60.2656 92.8594C61.9844 93.2656 63.9062 93.4688 66.0312 93.4688Z" fill="white"/>
</svg>
