<svg width="80" height="80" viewBox="0 0 80 80" fill="none" xmlns="http://www.w3.org/2000/svg">
<path fill-rule="evenodd" clip-rule="evenodd" d="M9.99988 40C9.99988 39.0054 10.395 38.0516 11.0982 37.3483C11.8015 36.645 12.7553 36.25 13.7499 36.25L57.1999 36.25L41.0999 20.15C40.4375 19.4391 40.0769 18.4989 40.094 17.5274C40.1112 16.5558 40.5047 15.6289 41.1918 14.9419C41.8788 14.2548 42.8058 13.8612 43.7773 13.8441C44.7488 13.8269 45.689 14.1876 46.3999 14.85L68.8999 37.35C69.6021 38.0531 69.9966 39.0062 69.9966 40C69.9966 40.9937 69.6021 41.9468 68.8999 42.65L46.3999 65.15C45.689 65.8124 44.7488 66.173 43.7773 66.1558C42.8058 66.1387 41.8788 65.7451 41.1918 65.0581C40.5047 64.371 40.1111 63.4441 40.094 62.4726C40.0769 61.5011 40.4375 60.5608 41.0999 59.85L57.1999 43.75L13.7499 43.75C12.7553 43.75 11.8015 43.3549 11.0982 42.6516C10.395 41.9483 9.99988 40.9945 9.99988 40Z" fill="#F3E584"/>
</svg>
