<svg xmlns="http://www.w3.org/2000/svg" width="60" height="60" viewBox="0 0 60 60">
  <g id="favicon" transform="translate(18338.054 2328.557)">
    <g id="Gruppe_334" data-name="Gruppe 334" transform="translate(-18338.053 -2328.557)">
      <path id="Pfad_221" data-name="Pfad 221" d="M95.565,65.564s-1.707,10.8-10.442,13.783A19.608,19.608,0,0,1,69.276,77.8s-4.065-2.51-5.349-5.536-1.291-3.233-.412-3.752,1.222-.178,1.465.346,3.045,8.311,13.491,9.364,12.971-6.537,12.971-6.537a42.055,42.055,0,0,0,2.228-4.495c.455-1.347,1.427-1.776,1.9-1.623" transform="translate(-43.746 -45.432)" fill="#e22e88"/>
      <path id="Pfad_239" data-name="Pfad 239" d="M72.884,60.8a17.176,17.176,0,0,0-2.421,3.992s.1.286-.1.288l-.142-.148c-.456-1.538-1.373-4.65,1.932-5.627a6.8,6.8,0,0,1,3.724.125c2.633.982,3.479,2.2,3.364,3.694,0,0-.043-.211-.218-.252a26.4,26.4,0,0,1-4.153-1.562,14.92,14.92,0,0,1-1.307-.984c-.169-.118-.5-.245-.359-.262" transform="translate(-45.079 -44.318)" fill="#e22e88"/>
      <path id="Pfad_240" data-name="Pfad 240" d="M90.764,58.379c-.474.173-1.14.151-1.408.442-1.065,1.171-1.168,2.753-1.795,4l-.669-.129-.021-.041c-.208-1.552-.739-4.622,2.644-5.526a6.565,6.565,0,0,1,3.745.229c2.477,1.078,2.991,2.294,2.635,3.786,0,0-.1.4-.28.347a20.234,20.234,0,0,1-3.8-2.123c-.51-.316-.96-.807-1.289-1.044" transform="translate(-48.12 -43.933)" fill="#e22e88"/>
      <path id="Pfad_241" data-name="Pfad 241" d="M69.673,43.465c.254,1.923,1.058,7.007,3.007,7.648a2.544,2.544,0,0,0,1.767-.948,16.445,16.445,0,0,0,2.372-3.386,16.828,16.828,0,0,1-1.575,3.991c-.933,1.68-2.782,2.666-4.585,1.394-2.567-1.969-3.7-4.9-4.893-7.789l3.908-.911" transform="translate(-44.361 -41.528)" fill="#e22e88"/>
      <path id="Pfad_258" data-name="Pfad 258" d="M93.927,54.109l.376-.263a30,30,0,1,1-46.63-3.234,29.731,29.731,0,0,1,8.943-6.587,30.153,30.153,0,0,1,10.47-2.832,21.242,21.242,0,0,1,2.681-.1,19.959,19.959,0,0,1,2.665.131c.441.045.884.057,1.321.129l1.308.233c.435.08.87.145,1.3.238l.762.21a22.308,22.308,0,0,1,2.6.788c.718.317,1.462.552,2.151.919l2.074,1.055,1.973,1.217c.653.407,1.244.909,1.869,1.353a30.723,30.723,0,0,1,6.3,6.631,28.671,28.671,0,0,0-6.709-6.581,26.891,26.891,0,0,0-8.478-3.969c-.41-.137-.84-.2-1.259-.3L77.015,43l-.474-.107a9.591,9.591,0,0,0-1.239-.2,27.433,27.433,0,0,0-22.352,47.5,27.1,27.1,0,0,0,8.431,5.232A27.631,27.631,0,0,0,89.5,90.512a27.507,27.507,0,0,0,4.429-36.4" transform="translate(-39.688 -41.078)" fill="#e22e88"/>
      <path id="Pfad_259" data-name="Pfad 259" d="M55.964,69.344c2.8-.367,5.9-.219,6.775-3.352.327-.9.513-1.955.852-3.1,3.633,5.734-2.593,10.662-7.626,6.452" transform="translate(-42.607 -44.992)" fill="#e22e88"/>
      <path id="Pfad_260" data-name="Pfad 260" d="M100.725,60.21c.462,1.886.59,4.017,2.829,4.379.649.157,1.395.205,2.214.352-3.71,2.907-7.591-.982-5.043-4.731" transform="translate(-50.481 -44.518)" fill="#e22e88"/>
    </g>
  </g>
</svg>
