<svg width="49" height="48" viewBox="0 0 49 48" fill="none" xmlns="http://www.w3.org/2000/svg">
<path d="M15.5 33.75C19.2279 33.75 22.25 30.7279 22.25 27C22.25 23.2721 19.2279 20.25 15.5 20.25C11.7721 20.25 8.75 23.2721 8.75 27C8.75 30.7279 11.7721 33.75 15.5 33.75Z" stroke="#55476B" stroke-width="3.5" stroke-linecap="round" stroke-linejoin="round"/>
<path d="M33.5 18.75C37.2279 18.75 40.25 15.7279 40.25 12C40.25 8.27208 37.2279 5.25 33.5 5.25C29.7721 5.25 26.75 8.27208 26.75 12C26.75 15.7279 29.7721 18.75 33.5 18.75Z" stroke="#55476B" stroke-width="3.5" stroke-linecap="round" stroke-linejoin="round"/>
<path d="M23.75 27.75C23.75 24.75 26 18.75 33.5 18.75C41 18.75 43.25 24.75 43.25 27.75M5.75 42.75C5.75 39.75 8 33.75 15.5 33.75C23 33.75 25.25 39.75 25.25 42.75" stroke="#55476B" stroke-width="3.5" stroke-linecap="round" stroke-linejoin="round"/>
</svg>
