<svg width="54" height="54" viewBox="0 0 54 54" fill="none" xmlns="http://www.w3.org/2000/svg">
<path d="M27 4.5C14.625 4.5 4.5 14.625 4.5 27V49.5H49.5V27C49.5 14.625 39.375 4.5 27 4.5ZM27 9C33.525 9 39.24 12.51 42.39 17.73C41.4225 17.8875 40.41 18 39.375 18C32.85 18 27.135 14.49 23.985 9.27C24.9525 9.1125 25.965 9 27 9ZM18.18 11.3175C16.7595 15.5483 13.827 19.1058 9.945 21.3075C11.3655 17.0767 14.298 13.5192 18.18 11.3175ZM9 26.685C14.85 24.48 19.5525 19.9575 21.915 14.1975C24.0253 16.792 26.6875 18.8835 29.7078 20.3197C32.7281 21.7559 36.0306 22.5007 39.375 22.5C41.0625 22.5 42.6825 22.2975 44.2575 21.96C44.73 23.5575 45 25.245 45 27C45 36.9225 36.9225 45 27 45C17.0775 45 9 36.9225 9 27V26.685ZM9 45V40.5C10.2825 42.1875 11.8125 43.7175 13.5 45H9ZM45 45H40.5C42.1875 43.7175 43.7175 42.1875 45 40.5V45ZM30.9375 29.25C30.9375 28.5041 31.2338 27.7887 31.7613 27.2613C32.2887 26.7338 33.0041 26.4375 33.75 26.4375C34.4959 26.4375 35.2113 26.7338 35.7387 27.2613C36.2662 27.7887 36.5625 28.5041 36.5625 29.25C36.5625 29.9959 36.2662 30.7113 35.7387 31.2387C35.2113 31.7662 34.4959 32.0625 33.75 32.0625C33.0041 32.0625 32.2887 31.7662 31.7613 31.2387C31.2338 30.7113 30.9375 29.9959 30.9375 29.25ZM17.4375 29.25C17.4375 28.5041 17.7338 27.7887 18.2613 27.2613C18.7887 26.7338 19.5041 26.4375 20.25 26.4375C20.9959 26.4375 21.7113 26.7338 22.2387 27.2613C22.7662 27.7887 23.0625 28.5041 23.0625 29.25C23.0625 29.9959 22.7662 30.7113 22.2387 31.2387C21.7113 31.7662 20.9959 32.0625 20.25 32.0625C19.5041 32.0625 18.7887 31.7662 18.2613 31.2387C17.7338 30.7113 17.4375 29.9959 17.4375 29.25Z" fill="#55476B"/>
<path d="M23 38C24.5 39.8333 28.4 42.4 32 38" stroke="#55476B" stroke-width="3.5" stroke-linecap="round"/>
</svg>
