<svg width="61" height="61" viewBox="0 0 61 61" fill="none" xmlns="http://www.w3.org/2000/svg">
<path d="M30.5 44.8604C30.8389 44.8604 31.1464 44.8079 31.4226 44.7028C31.6988 44.5978 31.9632 44.4385 32.2156 44.225C33.5712 42.9965 34.8632 41.7892 36.0917 40.6031C37.3201 39.417 38.3902 38.2521 39.3018 37.1083C40.2134 35.9646 40.9437 34.853 41.4927 33.7737C42.0417 32.6943 42.3171 31.6454 42.3187 30.6271C42.3187 28.7632 41.6833 27.217 40.4125 25.9885C39.1417 24.7601 37.6167 24.1458 35.8375 24.1458C34.7361 24.1458 33.7305 24.3687 32.8205 24.8143C31.9106 25.2599 31.1371 25.842 30.5 26.5604C29.8646 25.8403 29.0707 25.2582 28.1185 24.8143C27.1662 24.3703 26.1809 24.1475 25.1625 24.1458C23.3833 24.1458 21.8583 24.7601 20.5875 25.9885C19.3167 27.217 18.6812 28.7632 18.6812 30.6271C18.6812 31.6438 18.9566 32.6926 19.5073 33.7737C20.058 34.8547 20.7891 35.9663 21.7007 37.1083C22.6124 38.2504 23.6816 39.4153 24.9083 40.6031C26.1351 41.7909 27.4271 42.9982 28.7844 44.225C29.0385 44.4368 29.3037 44.5961 29.5799 44.7028C29.8561 44.8096 30.1628 44.8621 30.5 44.8604ZM15.25 53.375C13.8521 53.375 12.6558 52.8777 11.6612 51.883C10.6665 50.8884 10.1684 49.6913 10.1667 48.2917V29.5469L7.625 31.5167C7.03194 31.9403 6.39653 32.1097 5.71875 32.025C5.04097 31.9403 4.49028 31.6014 4.06666 31.0083C3.64305 30.4153 3.48462 29.7799 3.59137 29.1021C3.69812 28.4243 4.026 27.8736 4.575 27.45L27.3865 9.97604C27.8524 9.63715 28.3506 9.38299 28.881 9.21354C29.4113 9.0441 29.951 8.95938 30.5 8.95938C31.049 8.95938 31.5895 9.0441 32.1216 9.21354C32.6536 9.38299 33.151 9.63715 33.6135 9.97604L56.4885 27.45C57.0392 27.8736 57.3569 28.4243 57.4417 29.1021C57.5264 29.7799 57.3569 30.4153 56.9333 31.0083C56.5097 31.559 55.959 31.8767 55.2812 31.9615C54.6035 32.0462 53.9892 31.8767 53.4385 31.4531L50.8333 29.5469V48.2917C50.8333 49.6896 50.336 50.8867 49.3414 51.883C48.3467 52.8794 47.1496 53.3767 45.75 53.375H15.25ZM15.25 48.2917H45.75V25.6708L30.5 14.0427L15.25 25.6708V48.2917Z" fill="white"/>
</svg>
