<svg width="23" height="24" viewBox="0 0 23 24" fill="none" xmlns="http://www.w3.org/2000/svg">
<path d="M23 21C23 22.656 21.6129 24 19.9038 24L15.4808 24C15.1288 24 14.7913 23.8645 14.5425 23.6234C14.2936 23.3823 14.1538 23.0553 14.1538 22.7143C14.1538 22.3733 14.2936 22.0463 14.5425 21.8051C14.7913 21.564 15.1288 21.4286 15.4808 21.4286L19.9038 21.4286C20.0212 21.4286 20.1337 21.3834 20.2166 21.303C20.2996 21.2227 20.3462 21.1137 20.3462 21L20.3462 3C20.3462 2.76343 20.148 2.57143 19.9038 2.57143L15.4808 2.57143C15.1288 2.57143 14.7913 2.43597 14.5425 2.19485C14.2936 1.95373 14.1538 1.62671 14.1538 1.28571C14.1538 0.944722 14.2936 0.617696 14.5425 0.376578C14.7913 0.13546 15.1288 7.42393e-07 15.4808 7.73159e-07L19.9038 1.15984e-06C20.725 1.23162e-06 21.5125 0.316071 22.0932 0.87868C22.6738 1.44129 23 2.20435 23 3L23 21ZM11.3938 13.2857L1.32692 13.2857C0.975 13.2857 0.637492 13.1503 0.388646 12.9091C0.1398 12.668 -1.48413e-06 12.341 -1.45432e-06 12C-1.42451e-06 11.659 0.1398 11.332 0.388646 11.0909C0.637493 10.8497 0.975 10.7143 1.32692 10.7143L11.3938 10.7143L7.90846 7.33714C7.7338 7.17999 7.60611 6.9801 7.53885 6.75853C7.4716 6.53696 7.46726 6.30192 7.52631 6.07816C7.58535 5.85441 7.70559 5.65022 7.87435 5.48713C8.04311 5.32403 8.25415 5.20806 8.48523 5.15143C8.71591 5.09433 8.95819 5.09842 9.18667 5.16327C9.41515 5.22811 9.62142 5.35133 9.78385 5.52L15.5338 11.0914C15.7823 11.3325 15.9219 11.6593 15.9219 12C15.9219 12.3407 15.7823 12.6675 15.5338 12.9086L9.78384 18.48C9.62166 18.6492 9.41536 18.773 9.18669 18.8381C8.95802 18.9033 8.71544 18.9075 8.48451 18.8503C8.25359 18.7931 8.04286 18.6766 7.87453 18.513C7.70621 18.3495 7.58652 18.145 7.52808 17.9211C7.46915 17.6976 7.47337 17.4629 7.54029 17.2415C7.60722 17.0201 7.73439 16.8202 7.90846 16.6629L11.3938 13.2857Z" fill="white"/>
</svg>
