<svg width="50" height="50" viewBox="0 0 50 50" fill="none" xmlns="http://www.w3.org/2000/svg">
<path d="M25 45.8333C36.5059 45.8333 45.8333 36.5059 45.8333 25C45.8333 13.4941 36.5059 4.16666 25 4.16666C13.4941 4.16666 4.16666 13.4941 4.16666 25C4.16666 36.5059 13.4941 45.8333 25 45.8333Z" stroke="#55476B" stroke-width="3.5" stroke-linecap="round" stroke-linejoin="round"/>
<path d="M29.1666 33.3333C27.9729 34.65 26.5416 35.4167 25 35.4167C23.4583 35.4167 22.0271 34.65 20.8333 33.3333M18.75 23.9583C18.1541 23.3 17.4375 22.9167 16.6666 22.9167C15.8958 22.9167 15.1791 23.3 14.5833 23.9583M35.4166 23.9583C34.8208 23.3 34.1041 22.9167 33.3333 22.9167C32.5625 22.9167 31.8458 23.3 31.25 23.9583M25 4.16666C23.9869 4.16664 22.9889 4.4129 22.0921 4.88424C21.1953 5.35557 20.4265 6.03785 19.852 6.87231C19.2775 7.70677 18.9144 8.66838 18.7941 9.67433C18.6737 10.6803 18.7997 11.7004 19.1613 12.6468C19.5228 13.5933 20.1089 14.4376 20.8693 15.1072C21.6296 15.7767 22.5413 16.2514 23.5258 16.4904C24.5104 16.7293 25.5382 16.7253 26.5209 16.4787C27.5035 16.2322 28.4115 15.7504 29.1666 15.075" stroke="#55476B" stroke-width="3.5" stroke-linecap="round" stroke-linejoin="round"/>
</svg>
