<svg xmlns="http://www.w3.org/2000/svg" xmlns:xlink="http://www.w3.org/1999/xlink" width="2086.301" height="1568.25" viewBox="0 0 2086.301 1568.25">
  <defs>
    <clipPath id="clip-path">
      <rect id="Rechteck_1114" data-name="Rechteck 1114" width="1858.281" height="1125.646" fill="#f5faf3"/>
    </clipPath>
  </defs>
  <g id="bigDecal" transform="matrix(-0.966, -0.259, 0.259, -0.966, 1794.962, 1568.25)" opacity="0.28">
    <g id="Gruppe_37" data-name="Gruppe 37" clip-path="url(#clip-path)">
      <path id="Pfad_50" data-name="Pfad 50" d="M1371.013,419.14c68.685,14.04,131.743,25.56,194.116,40.019,83.713,19.415,157.53,57.617,215.624,122.635,107.54,120.332,103.061,290.052-12.55,402.782-94.856,92.478-214.427,138.215-342.428,140.157-159.514,2.428-322.234,1.951-478.349-26.23-257.97-46.566-514.466-67.178-774.972-39.885-34.125,3.575-68.819,5.969-102.985,4.086-73.842-4.069-85.169-25.451-51.145-90.6C23,963.143,36.793,950.87,34.716,947.646c-48.784-75.684,17.062-122.124,47.319-173.571,138.676-235.8,305.339-448.569,528.816-611.222C746.237,64.305,892.079-9.746,1065.339,1.046c55.942,3.483,114.17,16.158,165.542,38.177,123.045,52.744,176.082,155.9,157.128,287.013-4.245,29.369-10.624,58.429-17,92.905M86.565,938.881c37.3,0,52.652,1.892,67.4-.276,264.266-38.855,525.1-16.87,786.593,31.772,134.314,24.991,272.906,38.587,409.287,36.728,88.56-1.206,179.548-31.806,263.981-63.72,70.317-26.581,119.311-85.211,118.306-167.81-1.072-87.539-56.612-140.459-129.944-173.1-48.349-21.516-101.294-33.664-153.1-46.2-87.413-21.148-153.042-8.1-212.886,78.313-111.14,160.46-279.051,234.427-473.116,239.2-131.718,3.24-189.829-81.067-143.163-204.212,46.147-121.806,130.739-207.7,262.306-232.326,74.662-13.973,151.644-16.242,227.73-21.684,36.837-2.637,74.018-.461,104.827-.461,78.756-197.958,10.992-294-186.4-287.381-102.064,3.416-199.474,32.2-278.783,93.483-117.41,90.7-235.959,183.776-335.5,292.773C298.99,640.055,203.958,784.491,86.565,938.881M723.506,754.8c175.5-9.871,312.4-64.725,413.364-211.094C886.88,505.674,756.811,569.244,723.506,754.8" transform="translate(0.003 0.001)" fill="#f5faf3"/>
    </g>
  </g>
</svg>
