<svg xmlns="http://www.w3.org/2000/svg" width="40.146" height="30.62" viewBox="0 0 40.146 30.62">
  <g id="BURGER" transform="translate(-299.521 -17.945)">
    <path id="Pfad_284" data-name="Pfad 284" d="M328.926,47.117a9.011,9.011,0,0,1-.52,1.557c-.257.558-1.268.815-2.517.656-5.3-.679-10.622-.217-15.918-.022-4.037.151-8.036.485-12.059.688-2.589.129-3.739-.486-2.571-1.478,1.308-1.115.164-1.883-1-2.654-.7-.468-1.22-.833-.469-1.373a4.058,4.058,0,0,1,2.672-.6c4.625.094,9.265.172,13.877.07,6.177-.139,12.341-.44,18.507-.7,1.366-.055,2.793-.16,3.211.658.427.845-.7,1.267-2.249,1.48a1.925,1.925,0,0,0-.295.065,3.911,3.911,0,0,0-.668,1.65m-14.8-2.047c-5.856.355-5.816.824.052.671s5.8-1.027-.052-.671m3.264,2.333c.023-.032-1.054-.057-2.406-.057a13.294,13.294,0,0,0-2.445.113,12.9,12.9,0,0,0,2.406.057c1.327-.031,2.421-.081,2.445-.113m-9.306.281a2.22,2.22,0,0,0-1.031-.091q-.511.018-1.018.04c-.327.016-.651.036-.977.056a7.68,7.68,0,0,0-.961.091c.009.016.909.028,2.01.028a7.759,7.759,0,0,0,1.977-.125" transform="translate(7.438 -13.623)" fill="#e22e88" fill-rule="evenodd"/>
    <path id="Pfad_295" data-name="Pfad 295" d="M328.926,47.117a9.011,9.011,0,0,1-.52,1.557c-.257.558-1.268.815-2.517.656-5.3-.679-10.622-.217-15.918-.022-4.037.151-8.036.485-12.059.688-2.589.129-3.739-.486-2.571-1.478,1.308-1.115.164-1.883-1-2.654-.7-.468-1.22-.833-.469-1.373a4.058,4.058,0,0,1,2.672-.6c4.625.094,9.265.172,13.877.07,6.177-.139,12.341-.44,18.507-.7,1.366-.055,2.793-.16,3.211.658.427.845-.7,1.267-2.249,1.48a1.925,1.925,0,0,0-.295.065,3.911,3.911,0,0,0-.668,1.65m-14.8-2.047c-5.856.355-5.816.824.052.671s5.8-1.027-.052-.671m3.264,2.333c.023-.032-1.054-.057-2.406-.057a13.294,13.294,0,0,0-2.445.113,12.9,12.9,0,0,0,2.406.057c1.327-.031,2.421-.081,2.445-.113m-9.306.281a2.22,2.22,0,0,0-1.031-.091q-.511.018-1.018.04c-.327.016-.651.036-.977.056a7.68,7.68,0,0,0-.961.091c.009.016.909.028,2.01.028a7.759,7.759,0,0,0,1.977-.125" transform="translate(7.438 -25.282)" fill="#e22e88" fill-rule="evenodd"/>
    <path id="Pfad_285" data-name="Pfad 285" d="M294.825,67.713c-2.184-.871-3.019-1.915-2.309-2.131A5.623,5.623,0,0,1,293.9,65.3q13.133-.622,26.28-1.145c2.044-.082,2.589.2,2.8,1.135.1.433.185.868.276,1.325a2.848,2.848,0,0,0,2.374,1.654c1.165.181,2.848,1.213,1.7,1.93-.5.312-1.473.234-3.16-.11a15.439,15.439,0,0,0-3.715-.33c-4.849.272-9.678.637-14.5.988-2.706.2-5.391.463-8.1.641A12.569,12.569,0,0,1,294.7,71.3a1.724,1.724,0,0,1-1.281-1.067c-.037-.2,1-.569,1.66-.659a10.04,10.04,0,0,1,1.57-.054c.873.017.364-.935-1.821-1.805m13.852-.872c4.2-.069,4.051-.957-.125-.757s-4.072.826.125.757m-.581,1.613c-4.006.171-6.29.9-5.466.913.519.006,1.009.005,1.49-.027,1.837-.122,3.671-.254,5.621-.4,3.1-.228,2.361-.66-1.645-.489" transform="translate(7.252 -22.874)" fill="#e22e88" fill-rule="evenodd"/>
  </g>
</svg>
