<svg width="32" height="35" viewBox="0 0 32 35" fill="none" xmlns="http://www.w3.org/2000/svg">
<path d="M14.5 13.125C14.5 11.6667 15.5412 10.2083 17.6252 10.2083C18.7302 10.2083 19.79 9.76937 20.5713 8.98801C21.3527 8.20664 21.7917 7.14689 21.7917 6.04188V5.10417M8.66667 13.125V12.3958C8.66667 11.2355 9.1276 10.1227 9.94807 9.30224C10.7685 8.48177 11.8813 8.02083 13.0417 8.02083C13.8152 8.02083 14.5571 7.71354 15.1041 7.16656C15.651 6.61958 15.9583 5.87771 15.9583 5.10417V4.375M21.7917 16.9167V21.875C21.7917 24.1956 20.8698 26.4212 19.2288 28.0622C17.5879 29.7031 15.3623 30.625 13.0417 30.625H10.125C7.80436 30.625 5.57876 29.7031 3.93782 28.0622C2.29687 26.4212 1.375 24.1956 1.375 21.875V16.9167C1.375 16.6846 1.46719 16.462 1.63128 16.2979C1.79538 16.1339 2.01794 16.0417 2.25 16.0417H20.9167C21.1487 16.0417 21.3713 16.1339 21.5354 16.2979C21.6995 16.462 21.7917 16.6846 21.7917 16.9167Z" stroke="#CAC6D1" stroke-width="2" stroke-linecap="round" stroke-linejoin="round"/>
<path d="M20.3333 16.0417H23.9792C24.9461 16.0417 25.8734 16.4258 26.5572 17.1095C27.2409 17.7932 27.625 18.7206 27.625 19.6875C27.625 20.6544 27.2409 21.5818 26.5572 22.2655C25.8734 22.9492 24.9461 23.3333 23.9792 23.3333H21.7917" stroke="#CAC6D1" stroke-width="2" stroke-linecap="round" stroke-linejoin="round"/>
</svg>
