<svg width="49" height="48" viewBox="0 0 49 48" fill="none" xmlns="http://www.w3.org/2000/svg">
<path d="M24.5 18C24.5 16 25.928 14 28.786 14C30.3014 14 31.7548 13.398 32.8264 12.3264C33.898 11.2548 34.5 9.80145 34.5 8.286V7M16.5 18V17C16.5 15.4087 17.1321 13.8826 18.2574 12.7574C19.3826 11.6321 20.9087 11 22.5 11C23.5609 11 24.5783 10.5786 25.3284 9.82843C26.0786 9.07828 26.5 8.06087 26.5 7V6M34.5 23.2V30C34.5 33.1826 33.2357 36.2348 30.9853 38.4853C28.7348 40.7357 25.6826 42 22.5 42H18.5C15.3174 42 12.2652 40.7357 10.0147 38.4853C7.76428 36.2348 6.5 33.1826 6.5 30V23.2C6.5 22.8817 6.62643 22.5765 6.85147 22.3515C7.07652 22.1264 7.38174 22 7.7 22H33.3C33.6183 22 33.9235 22.1264 34.1485 22.3515C34.3736 22.5765 34.5 22.8817 34.5 23.2Z" stroke="white" stroke-width="3.5" stroke-linecap="round" stroke-linejoin="round"/>
<path d="M32.5 22H37.5C38.8261 22 40.0979 22.5268 41.0355 23.4645C41.9732 24.4021 42.5 25.6739 42.5 27C42.5 28.3261 41.9732 29.5979 41.0355 30.5355C40.0979 31.4732 38.8261 32 37.5 32H34.5" stroke="white" stroke-width="3.5" stroke-linecap="round" stroke-linejoin="round"/>
</svg>
