<svg width="15" height="15" viewBox="0 0 15 15" fill="none" xmlns="http://www.w3.org/2000/svg">
<g clip-path="url(#clip0_96_46)">
<path d="M0.75 3C0.75 2.175 1.425 1.5 2.25 1.5H12.75C13.1478 1.5 13.5294 1.65804 13.8107 1.93934C14.092 2.22064 14.25 2.60218 14.25 3V13.5C14.25 13.8978 14.092 14.2794 13.8107 14.5607C13.5294 14.842 13.1478 15 12.75 15H2.25C1.85218 15 1.47064 14.842 1.18934 14.5607C0.908035 14.2794 0.75 13.8978 0.75 13.5V3ZM2.25 4.5V13.5H12.75V4.5H2.25ZM3.75 0H5.25V1.5H3.75V0ZM9.75 0H11.25V1.5H9.75V0ZM3.75 6.75H5.25V8.25H3.75V6.75ZM3.75 9.75H5.25V11.25H3.75V9.75ZM6.75 6.75H8.25V8.25H6.75V6.75ZM6.75 9.75H8.25V11.25H6.75V9.75ZM9.75 6.75H11.25V8.25H9.75V6.75ZM9.75 9.75H11.25V11.25H9.75V9.75Z" fill="#AFD3A2"/>
</g>
<defs>
<clipPath id="clip0_96_46">
<rect width="15" height="15" fill="white"/>
</clipPath>
</defs>
</svg>
