<svg width="41" height="41" viewBox="0 0 41 41" fill="none" xmlns="http://www.w3.org/2000/svg">
<path d="M2.05005 8.2C2.05005 5.945 3.89505 4.1 6.15005 4.1H34.8501C35.9374 4.1 36.9803 4.53196 37.7492 5.30086C38.5181 6.06976 38.9501 7.11261 38.9501 8.2V36.9C38.9501 37.9874 38.5181 39.0302 37.7492 39.7991C36.9803 40.568 35.9374 41 34.8501 41H6.15005C5.06266 41 4.01981 40.568 3.25091 39.7991C2.48201 39.0302 2.05005 37.9874 2.05005 36.9V8.2ZM6.15005 12.3V36.9H34.8501V12.3H6.15005ZM10.25 0H14.35V4.1H10.25V0ZM26.6501 0H30.7501V4.1H26.6501V0ZM10.25 18.45H14.35V22.55H10.25V18.45ZM10.25 26.65H14.35V30.75H10.25V26.65ZM18.4501 18.45H22.5501V22.55H18.4501V18.45ZM18.4501 26.65H22.5501V30.75H18.4501V26.65ZM26.6501 18.45H30.7501V22.55H26.6501V18.45ZM26.6501 26.65H30.7501V30.75H26.6501V26.65Z" fill="white"/>
</svg>
