<svg xmlns="http://www.w3.org/2000/svg" xmlns:xlink="http://www.w3.org/1999/xlink" width="1513" height="121" viewBox="0 0 1513 121">
  <defs>
    <clipPath id="clip-path">
      <rect id="Rechteck_1317" data-name="Rechteck 1317" width="1513" height="121" transform="translate(207 4759)" fill="#fff" stroke="#707070" stroke-width="1"/>
    </clipPath>
    <clipPath id="clip-path-2">
      <rect id="Rechteck_1113" data-name="Rechteck 1113" width="1506.444" height="288" fill="#fff"/>
    </clipPath>
  </defs>
  <g id="divider" transform="translate(-207 -4759)" clip-path="url(#clip-path)">
    <g id="Gruppe_225" data-name="Gruppe 225" transform="translate(206.777 4759)">
      <g id="Gruppe_35" data-name="Gruppe 35" clip-path="url(#clip-path-2)">
        <path id="Pfad_40" data-name="Pfad 40" d="M357.48,82.741c-2.1-7.7-4.336-13.025-4.906-18.52-1.613-15.538,6.488-27.984,21.993-29.575,12.531-1.286,26.257-.618,38.143,3.231,45.8,14.835,74.187,47.2,88.567,96.322,3.012-6.257,5.17-9.835,6.526-13.694,15.367-43.8,45.976-71.424,89.853-85.01a50.751,50.751,0,0,1,7.178-1.263c38.721-6.057,53.388,10.3,42.507,47.4,1.089,1.147,1.988,2.975,3.295,3.341,36.936,10.327,34.731,51.877,17.016,73.3C643.9,187,612.768,190.813,579.327,183.248c-19.659-4.449-39-11.08-57.724-18.632-13.881-5.6-26.033-4.941-39.651.384a514.4,514.4,0,0,1-55.42,17.941c-19.028,5.046-38.484,5.627-57.4-1.435-20.016-7.471-34.658-20.712-41.923-41.129-8.254-23.2-1.192-40.751,20.737-52.664,2.776-1.508,5.6-2.925,9.538-4.972m174.587,53.614c21,6.169,40.063,13.3,59.767,16.966,11.343,2.112,24.467.815,35.451-2.9,13.188-4.462,23.344-14.121,19.561-34.548-15.321,1.268-30.493,1.631-45.33,4.057-10.52,1.721-20.03,2.68-24.517-8.726s3.062-17.787,11.929-23.41c7.32-4.641,13.966-10.344,23.476-17.513-33.994,1.611-62.156,25.149-80.336,66.077m-133.6-68.427-3.554,4.293c9.343,6.927,19.467,13.062,27.684,21.136,3.812,3.746,6.963,12.875,4.956,16.691-2.746,5.215-10.305,8.906-16.552,10.9-3.966,1.266-9.241-2.2-14.021-2.741-13.314-1.51-26.826-4.591-43.4,3.073,4.829,8.648,7.494,17.211,13.138,22.717,11.106,10.835,26.069,13.858,40.744,10.552,21.732-4.893,42.994-11.865,66.646-18.572-18.2-34.7-40.287-59.124-75.637-68.051" transform="translate(251.372 25.614)" fill="#fff"/>
        <path id="Pfad_41" data-name="Pfad 41" d="M574.652,102.707c1.147,4.881,3.487,10.3,3.366,15.655-.108,4.828-2.913,9.595-4.529,14.389-5-1.7-11.5-1.954-14.746-5.337-17.7-18.449-11.208-46.834,13.032-55.347a75.122,75.122,0,0,1,31-3.906C627.663,70.5,652.7,73.287,677.089,78.6A644.523,644.523,0,0,0,799.581,93.324c1.627-8.344,1.427-16.685,4.986-22.852,3.391-5.879,10.179-10.416,16.385-13.936C845.547,42.587,872,35.79,900.333,39.736c27.439,3.824,36.433,24.749,20.73,47.637a69.764,69.764,0,0,1-45.928,29.694c-29.348,5.066-59.335,9.174-89.013,8.929-42.9-.355-85.473-5.845-126.608-20.291-16.625-5.838-34.655-8.1-52.243-10.607-10.922-1.559-22.8-3.179-32.62,7.609M821.569,90.856c25.122.97,50.079-.5,69.775-19.334-26.145-4.707-48.505,4.3-69.775,19.334" transform="translate(425.88 29.98)" fill="#fff"/>
        <path id="Pfad_42" data-name="Pfad 42" d="M218.982,93.345A703.837,703.837,0,0,0,338.9,78.409c26.79-5.645,54.4-7.906,81.772-9.982,9.169-.7,19.629,2.119,27.943,6.373,19.5,9.977,22.673,39.621,6.138,53.934-3.414,2.957-10.4,3.615-15.048,2.487-2.1-.508-3.6-8.048-3.4-12.3.258-5.428,2.512-10.762,3.893-16.094-9.605-10.566-21.467-9.561-32.3-7.733-20.733,3.5-41.522,7.513-61.685,13.385-60.925,17.742-122.748,23.016-185.4,13.741-15.682-2.32-31.376-8.561-45.5-15.975-9.524-5-18.183-14.058-23.929-23.344-12.074-19.52-3.893-38.419,18.4-42.324,34.4-6.023,66.521,1.9,93.937,23.458,6.911,5.433,9.071,16.915,15.261,29.316M123.4,71C143,90.878,168.352,91.592,193.936,91.513,173.22,75.341,149.94,67.725,123.4,71" transform="translate(66.602 29.973)" fill="#fff"/>
        <path id="Pfad_43" data-name="Pfad 43" d="M44.328,57.786c18.128,4.465,39.312,9.3,60.235,15.078,6.035,1.668,12.435,5.019,16.618,9.51C125,86.466,128.926,94.1,127.5,98.428c-1.49,4.524-8.929,8.67-14.449,9.888-6.867,1.517-14.579.693-21.668-.574-23.87-4.256-47.639-9.094-71.415-13.872-3.9-.785-8.05-1.7-11.385-3.712-11.762-7.1-11.522-21.552,1.24-26.383,9.55-3.613,20.43-3.71,34.5-5.989" transform="translate(0 44.852)" fill="#fff"/>
        <path id="Pfad_44" data-name="Pfad 44" d="M868.7,59.641c6.424.57,12.931.678,19.25,1.824,8.43,1.531,15.726,5.348,16.128,15.208.394,9.652-5.893,14.524-14.463,16.74-6.245,1.616-12.593,2.853-18.925,4.1-15.826,3.123-31.63,6.362-47.518,9.138a178.022,178.022,0,0,1-24.039,2.615c-8.883.327-18.92.7-22.257-10.039-3.831-12.328,6.355-16.884,14.552-21.913a38.852,38.852,0,0,1,10.938-5.057c21.852-5.181,43.788-10.011,65.7-14.959q.317,1.17.638,2.339" transform="translate(602.347 44.476)" fill="#fff"/>
        <path id="Pfad_45" data-name="Pfad 45" d="M775.032,81.4c2.11-6.334,2.959-13.522,6.558-18.849,13.4-19.829,31.82-34.477,52.916-45.218,4.352-2.217,13.993-.639,16.92,2.813,2.883,3.4,2.839,13.975-.236,16.98C830.536,57.3,809.181,76.984,780.8,85.654L775.032,81.4" transform="translate(601.561 12.659)" fill="#fff"/>
        <path id="Pfad_46" data-name="Pfad 46" d="M104.233,85.5c-4.6-.906-10.13-.481-13.639-2.941Q62.755,63.042,35.873,42.176c-6.813-5.3-10.767-13.129-4.38-21.238C37.742,13,46.516,14.225,53.241,19.708c16.245,13.247,32.25,26.9,47.184,41.575,4.9,4.815,6.208,13.286,9.16,20.085q-2.678,2.065-5.352,4.131" transform="translate(21.939 11.869)" fill="#fff"/>
        <path id="Pfad_47" data-name="Pfad 47" d="M413.987,157.407c.675-6.931.549-11.89,1.735-16.511,2.334-9.087,8.86-13.295,18.069-12.591,8.092.62,14.453,4.885,14.716,13.293.378,12.025.376,24.353-2.016,36.03-.943,4.6-8.6,10.563-13.488,10.836-4.746.265-11.968-4.9-14.307-9.586-3.455-6.915-3.552-15.511-4.709-21.47" transform="translate(321.327 99.528)" fill="#fff"/>
        <path id="Pfad_48" data-name="Pfad 48" d="M765.96,63.764C750.548,42.734,753.38,24.685,759.7,7.051c1.309-3.65,8.673-6.918,13.284-6.97,3.126-.036,8.849,5.705,9.06,9.13,1.138,18.543-2.1,36.2-16.089,54.553" transform="translate(585.725 0.063)" fill="#fff"/>
        <path id="Pfad_49" data-name="Pfad 49" d="M95.175,62.66C78.829,45.731,78.58,27.227,78.632,9.078,78.642,5.831,84.651-.124,87.69,0c4.614.19,11.87,3.687,13.085,7.392,5.764,17.6,8.842,35.646-5.6,55.266" transform="translate(61.029 0)" fill="#fff"/>
      </g>
    </g>
  </g>
</svg>
