<svg xmlns="http://www.w3.org/2000/svg" width="37.662" height="26.417" viewBox="0 0 37.662 26.417">
  <path id="email" d="M19,17.746a.9.9,0,0,0,1.308.13,25.421,25.421,0,0,0,2.675-1.741c1.97-1.564,3.776-3.332,5.7-4.955C29.93,10.124,36.4,2.749,37.415,7.1c.522,2.226.085,4.875-.108,7.123-.239,2.812-.415,5.66-.734,8.46-.2,1.755-1.184,2.471-2.913,2.486-2.834.023-5.667.058-8.5.012a118.543,118.543,0,0,0-15.852.788c-1.765.2-4.442.875-6.108.038-1.907-.959-1.764-4.464-2.066-6.27A61.576,61.576,0,0,1,.32,12.386C.214,10.009-.443,6.5.505,4.266c1.2-2.808,3.489-.03,4.668,1.169A25.146,25.146,0,0,0,8.007,7.95c1.676,1.256,2.27.245.394-1.215-1.211-.942-2.522-1.8-3.429-2.6C2.967,2.377,2.15.365,5.507.337,12.065.282,18.847-.349,25.376.27c1.462.138,2.922.319,4.387.413,1,.065,2.457-.408,3.334.249,2.161,1.624-.792,4.306-1.93,5.266-2.291,1.938-4.516,3.971-6.7,6.024a25.434,25.434,0,0,1-3.12,2.261c-1.789,1.157-2.9,2.672-2.346,3.262m-6.4,5.963c4.565-.406,9.132-.558,13.712-.7,2.147-.068,4.6.171,6.7-.326,1.551-.366,1.4-2.113,1.5-3.378.166-2.148.395-4.294.623-6.437q.092-.845.184-1.69c.1-.933-.321-1.9-.924-1.758a2.369,2.369,0,0,0-.976.529c-3.639,3.093-7.235,6.237-10.917,9.281-1.509,1.249-2.747,2.23-4.375.624-1.562-1.542-2.859-3.337-4.421-4.884a46.867,46.867,0,0,0-6.674-5.22c-2.451-1.665-4.9-.66-4.961,2.3-.042,2.194.22,3.612.283,6.153.207,8.527,7.781,5.724,10.249,5.506M19.488,2.165c-2.3.176-4.647.054-6.977.081C9.548,2.28,7.848,4.32,9.483,5.478c1.076.763,2.273,1.425,3.007,2.027,1.083.888,2.1,1.861,3.1,2.843,1.664,1.624,3.847,3.089,4.661,2.477.566-.426,1.123-.959,1.4-1.2.987-.887,2.008-1.738,3.012-2.6s2.01-1.774,2.939-2.735c1.541-1.6,1.679-3.422.583-3.589-.656-.1-1.368-.179-1.995-.222a46.771,46.771,0,0,0-6.7-.307" transform="translate(0 0)" fill="#fff" fill-rule="evenodd"/>
</svg>
