<svg width="30" height="30" viewBox="0 0 30 30" fill="none" xmlns="http://www.w3.org/2000/svg">
<g clip-path="url(#clip0_121_323)">
<path d="M30 21.7383C30 22.2656 29.9023 22.7637 29.707 23.2324C29.5117 23.7012 29.2285 24.126 28.8574 24.5068L23.4375 29.9121L18.0176 24.5068C17.6465 24.1357 17.3633 23.7158 17.168 23.2471C16.9727 22.7783 16.875 22.2754 16.875 21.7383C16.875 21.2012 16.9775 20.6934 17.1826 20.2148C17.3877 19.7363 17.666 19.3213 18.0176 18.9697C18.3691 18.6182 18.7793 18.335 19.248 18.1201C19.7168 17.9053 20.2295 17.8027 20.7861 17.8125C21.2744 17.8125 21.748 17.8955 22.207 18.0615C22.666 18.2275 23.0762 18.4863 23.4375 18.8379C23.8086 18.4961 24.2188 18.2422 24.668 18.0762C25.1172 17.9102 25.5908 17.8223 26.0889 17.8125C26.6357 17.8125 27.1436 17.915 27.6123 18.1201C28.0811 18.3252 28.4961 18.6035 28.8574 18.9551C29.2188 19.3066 29.4971 19.7266 29.6924 20.2148C29.8877 20.7031 29.9902 21.2109 30 21.7383ZM28.125 21.7383C28.125 21.4551 28.0713 21.1914 27.9639 20.9473C27.8564 20.7031 27.71 20.4834 27.5244 20.2881C27.3389 20.0928 27.124 19.9463 26.8799 19.8486C26.6357 19.751 26.3672 19.6973 26.0742 19.6875C25.5176 19.6875 25.0391 19.8877 24.6387 20.2881L23.4375 21.4893L22.2363 20.2881C22.041 20.0928 21.8213 19.9463 21.5771 19.8486C21.333 19.751 21.0742 19.6973 20.8008 19.6875C20.5176 19.6875 20.2539 19.7412 20.0098 19.8486C19.7656 19.9561 19.5459 20.1025 19.3506 20.2881C19.1553 20.4736 19.0088 20.6885 18.9111 20.9326C18.8135 21.1768 18.7598 21.4453 18.75 21.7383C18.75 22.2949 18.9502 22.7734 19.3506 23.1738L23.4375 27.2607L27.5244 23.1738C27.9248 22.7734 28.125 22.2949 28.125 21.7383ZM16.875 16.875C16.0254 16.2402 15.1416 15.7715 14.2236 15.4688C13.3057 15.166 12.3145 15.0098 11.25 15C9.94141 15 8.71582 15.2393 7.57324 15.7178C6.43066 16.1963 5.43945 16.8604 4.59961 17.71C3.75977 18.5596 3.0957 19.5557 2.60742 20.6982C2.11914 21.8408 1.875 23.0664 1.875 24.375H0C0 23.1934 0.170898 22.0605 0.512695 20.9766C0.854492 19.8926 1.34277 18.8867 1.97754 17.959C2.6123 17.0312 3.37402 16.2207 4.2627 15.5273C5.15137 14.834 6.15723 14.2725 7.28027 13.8428C6.74316 13.5107 6.25977 13.1104 5.83008 12.6416C5.40039 12.1729 5.0293 11.665 4.7168 11.1182C4.4043 10.5713 4.16504 9.99023 3.99902 9.375C3.83301 8.75977 3.75 8.13477 3.75 7.5C3.75 6.46484 3.94531 5.49316 4.33594 4.58496C4.72656 3.67676 5.26367 2.88574 5.94727 2.21191C6.63086 1.53809 7.42676 1.00098 8.33496 0.600586C9.24316 0.200195 10.2148 0 11.25 0C12.2852 0 13.2568 0.195313 14.165 0.585938C15.0732 0.976562 15.8643 1.51367 16.5381 2.19727C17.2119 2.88086 17.749 3.67676 18.1494 4.58496C18.5498 5.49316 18.75 6.46484 18.75 7.5C18.75 8.13477 18.667 8.75488 18.501 9.36035C18.335 9.96582 18.1006 10.5469 17.7979 11.1035C17.4951 11.6602 17.124 12.1729 16.6846 12.6416C16.2451 13.1104 15.7568 13.5107 15.2197 13.8428C15.8643 14.0674 16.4551 14.3506 16.9922 14.6924C17.5293 15.0342 18.0615 15.4346 18.5889 15.8936C18.2666 16.001 17.9688 16.1377 17.6953 16.3037C17.4219 16.4697 17.1484 16.6602 16.875 16.875ZM16.875 7.5C16.875 6.72852 16.7285 6.00586 16.4355 5.33203C16.1426 4.6582 15.7373 4.0625 15.2197 3.54492C14.7021 3.02734 14.1064 2.62207 13.4326 2.3291C12.7588 2.03613 12.0312 1.88477 11.25 1.875C10.4785 1.875 9.75586 2.02148 9.08203 2.31445C8.4082 2.60742 7.8125 3.0127 7.29492 3.53027C6.77734 4.04785 6.37207 4.64355 6.0791 5.31738C5.78613 5.99121 5.63477 6.71875 5.625 7.5C5.625 8.27148 5.77148 8.99414 6.06445 9.66797C6.35742 10.3418 6.7627 10.9375 7.28027 11.4551C7.79785 11.9727 8.39355 12.3779 9.06738 12.6709C9.74121 12.9639 10.4688 13.1152 11.25 13.125C12.0215 13.125 12.7441 12.9785 13.418 12.6855C14.0918 12.3926 14.6875 11.9873 15.2051 11.4697C15.7227 10.9521 16.1279 10.3564 16.4209 9.68262C16.7139 9.00879 16.8652 8.28125 16.875 7.5Z" fill="white"/>
</g>
<defs>
<clipPath id="clip0_121_323">
<rect width="30" height="30" fill="white"/>
</clipPath>
</defs>
</svg>
