<svg width="45" height="45" viewBox="0 0 45 45" fill="none" xmlns="http://www.w3.org/2000/svg">
<path d="M22.5 33.0938C22.75 33.0938 22.9769 33.055 23.1806 32.9775C23.3844 32.9 23.5794 32.7825 23.7656 32.625C24.7656 31.7188 25.7188 30.8281 26.625 29.9531C27.5313 29.0781 28.3206 28.2188 28.9931 27.375C29.6656 26.5313 30.2044 25.7113 30.6094 24.915C31.0144 24.1188 31.2175 23.345 31.2188 22.5937C31.2188 21.2187 30.75 20.0781 29.8125 19.1719C28.875 18.2656 27.75 17.8125 26.4375 17.8125C25.625 17.8125 24.8831 17.9769 24.2119 18.3056C23.5406 18.6344 22.97 19.0637 22.5 19.5937C22.0313 19.0625 21.4456 18.6331 20.7431 18.3056C20.0406 17.9781 19.3138 17.8137 18.5625 17.8125C17.25 17.8125 16.125 18.2656 15.1875 19.1719C14.25 20.0781 13.7813 21.2187 13.7813 22.5937C13.7813 23.3437 13.9844 24.1175 14.3906 24.915C14.7969 25.7125 15.3363 26.5325 16.0088 27.375C16.6813 28.2175 17.47 29.0769 18.375 29.9531C19.28 30.8294 20.2331 31.72 21.2344 32.625C21.4219 32.7813 21.6175 32.8987 21.8213 32.9775C22.025 33.0562 22.2513 33.095 22.5 33.0938ZM11.25 39.375C10.2188 39.375 9.33626 39.0081 8.60251 38.2744C7.86876 37.5406 7.50126 36.6575 7.50001 35.625V21.7969L5.62501 23.25C5.18751 23.5625 4.71876 23.6875 4.21876 23.625C3.71876 23.5625 3.31251 23.3125 3.00001 22.875C2.68751 22.4375 2.57064 21.9687 2.64939 21.4687C2.72814 20.9687 2.97001 20.5625 3.37501 20.25L20.2031 7.35937C20.5469 7.10937 20.9144 6.92187 21.3056 6.79687C21.6969 6.67187 22.095 6.60938 22.5 6.60938C22.905 6.60937 23.3038 6.67187 23.6963 6.79687C24.0888 6.92187 24.4556 7.10937 24.7969 7.35937L41.6719 20.25C42.0781 20.5625 42.3125 20.9687 42.375 21.4687C42.4375 21.9687 42.3125 22.4375 42 22.875C41.6875 23.2812 41.2813 23.5156 40.7813 23.5781C40.2813 23.6406 39.8281 23.5156 39.4219 23.2031L37.5 21.7969V35.625C37.5 36.6563 37.1331 37.5394 36.3994 38.2744C35.6656 39.0094 34.7825 39.3763 33.75 39.375H11.25ZM11.25 35.625H33.75V18.9375L22.5 10.3594L11.25 18.9375V35.625Z" fill="#E22E88"/>
</svg>
