<svg width="67" height="67" viewBox="0 0 67 67" fill="none" xmlns="http://www.w3.org/2000/svg">
<path d="M65.5659 33.054C65.5659 33.8415 66.1719 34.6494 66.1162 35.4222C66.0606 36.1949 65.8791 36.997 65.7679 37.7668C65.6567 38.5426 64.9336 39.21 64.7668 39.9681C64.5999 40.7263 64.3423 41.4522 64.1228 42.1957C63.9033 42.9392 63.7511 43.6974 63.4788 44.4262C63.2066 45.1551 62.9314 45.8723 62.6065 46.5807C62.2816 47.2891 61.7518 47.8745 61.38 48.5565C61.0083 49.2386 61.5293 50.4709 61.1078 51.1266C60.6863 51.7823 60.2062 52.4556 59.7378 53.0791C59.2695 53.7026 57.8469 53.5621 57.3346 54.1504C56.8223 54.7388 56.717 55.6814 56.1667 56.2317C55.6163 56.782 55.1246 57.4084 54.5333 57.9178C53.942 58.4271 53.2131 58.7696 52.5896 59.2379C51.9661 59.7063 51.4041 60.2624 50.7455 60.684C50.0868 61.1055 49.5277 61.7085 48.8398 62.0832C48.152 62.4579 47.0718 62.0071 46.3605 62.332C45.6492 62.6569 45.055 63.1633 44.3232 63.4355C43.5914 63.7078 43.0264 64.4454 42.2741 64.6679C41.5218 64.8904 40.7227 64.905 39.9558 65.0719C39.1888 65.2387 38.4658 65.6192 37.6901 65.7305C36.9144 65.8417 36.0772 65.1538 35.2927 65.2094C34.5082 65.265 33.7794 66.1842 32.9919 66.1842C32.2045 66.1842 31.4171 65.9442 30.6443 65.8885C29.8715 65.8329 29.1514 65.2211 28.3816 65.1128C27.6117 65.0045 26.8653 64.8582 26.1071 64.6942C25.349 64.5303 24.5323 64.6211 23.7859 64.4015C23.0394 64.182 22.2022 64.1995 21.4763 63.9273C20.7504 63.6551 20.2176 62.8969 19.5121 62.572C18.8067 62.2471 18.1071 61.9397 17.4221 61.568C16.7371 61.1962 16.0317 60.8859 15.376 60.4644C14.7203 60.0429 14.0588 59.6448 13.4353 59.1765C12.8118 58.7081 11.9804 58.4915 11.3921 57.9792C10.8037 57.467 10.3734 56.7732 9.82015 56.2229C9.26691 55.6726 8.47071 55.333 7.95845 54.7417C7.44619 54.1504 7.14761 53.3718 6.67926 52.7454C6.2109 52.119 5.99722 51.3257 5.57277 50.67C5.15125 50.0143 5.06344 49.1917 4.68583 48.5038C4.30822 47.816 3.07001 47.573 2.74509 46.8617C2.42017 46.1533 2.54018 45.2429 2.26795 44.5082C1.99572 43.7735 1.12342 43.2232 0.903875 42.4709C0.684334 41.7186 1.07951 40.7936 0.915583 40.0267C0.75166 39.2685 0.485284 38.5162 0.37405 37.7376C0.265743 36.9706 0.59359 36.154 0.537974 35.3695C0.482357 34.5967 0.473575 33.8327 0.473575 33.0482C0.473575 32.2637 0.514556 31.5026 0.570173 30.7298C0.62579 29.9571 -0.0972306 29.076 0.0110762 28.309C0.119383 27.5421 0.605299 26.7986 0.769223 26.0404C0.933147 25.2823 1.69715 24.6705 1.91669 23.9241C2.13623 23.1776 1.49224 22.1297 1.76447 21.4008C2.0367 20.6719 2.24746 19.8611 2.56946 19.1557C2.89145 18.4502 3.32175 17.736 3.6935 17.051C4.06819 16.366 4.77072 15.8391 5.19224 15.1834C5.61375 14.5277 6.24018 13.9979 6.70853 13.3744C7.17688 12.7509 8.01699 12.4406 8.52925 11.8523C9.04152 11.2639 8.98297 10.1428 9.53329 9.59246C10.0836 9.04215 10.7334 8.55623 11.3247 8.0469C11.9131 7.53464 12.7152 7.26826 13.3387 6.79991C13.9622 6.33155 14.6559 5.96858 15.3116 5.54413C15.9673 5.12262 16.2981 4.11566 16.983 3.74097C17.668 3.36629 18.5696 3.36044 19.2809 3.03552C19.9922 2.7106 20.9055 2.89794 21.6402 2.62278C22.375 2.34762 23.0072 1.83829 23.7595 1.61875C24.5118 1.39921 25.1499 0.699603 25.9139 0.532752C26.6779 0.365901 27.4771 0.234177 28.2528 0.122943C29.0285 0.0117089 29.9008 0.907435 30.6824 0.851818C31.4552 0.796201 32.1987 0 32.9861 0C33.7735 0 34.5229 0.708384 35.2956 0.764001C36.0684 0.819618 36.8149 0.986469 37.5818 1.09478C38.3487 1.20308 39.101 1.2909 39.8592 1.45775C40.6173 1.6246 41.6418 0.816691 42.3854 1.0333C43.1289 1.24992 43.9338 1.47239 44.6598 1.74462C45.3857 2.01685 45.6287 3.48631 46.3371 3.8083C47.0455 4.13029 48.1959 3.56534 48.8779 3.94002C49.5599 4.31471 50.1395 4.91186 50.7952 5.33337C51.4509 5.75489 51.931 6.43986 52.5545 6.90529C53.178 7.37071 53.6668 7.98835 54.2552 8.50061C54.8436 9.01288 55.4056 9.52221 55.9588 10.0755C56.5121 10.6287 57.1853 11.0473 57.6947 11.6386C58.2069 12.227 58.5523 12.9353 59.0207 13.5618C59.489 14.1882 59.8374 14.8673 60.2589 15.523C60.6804 16.1787 61.6464 16.5095 62.0211 17.1944C62.3958 17.8765 62.9666 18.497 63.2915 19.2083C63.6164 19.9197 63.4905 20.8359 63.7628 21.5706C64.035 22.2995 63.7715 23.1923 63.994 23.9446C64.2165 24.6969 65.2527 25.2296 65.4196 25.9936C65.5835 26.7518 65.9669 27.5158 66.0753 28.2915C66.1836 29.0584 65.8382 29.9102 65.8938 30.6947C65.9494 31.4675 65.5513 32.2637 65.5513 33.0482L65.5659 33.054Z" fill="white"/>
<ellipse cx="33.8021" cy="33.1394" rx="25.8487" ry="25.1859" fill="white"/>
<path d="M53.5071 25.1436C53.5071 25.1436 51.9383 35.1457 43.9096 37.9185C35.881 40.6863 29.3411 36.4796 29.3411 36.4796C29.3411 36.4796 25.6041 34.1515 24.425 31.3487C23.2459 28.5459 23.2359 28.351 24.0453 27.8714C24.8546 27.3918 25.1694 27.7065 25.3942 28.1912C25.619 28.6758 28.192 35.8901 37.7944 36.8693C47.3969 37.8435 50.8741 30.1246 50.8741 30.1246C50.8741 30.1246 52.0082 27.9913 52.4279 26.7423C52.8476 25.4933 53.0824 25.0037 53.512 25.1436H53.5071Z" fill="#EE4799"/>
<path d="M31.2046 21.7063C30.3953 22.8154 29.7258 24.3992 29.3311 25.5683C29.3311 25.5683 29.3711 25.7481 29.1962 25.7481L28.9015 25.7281C28.4818 24.3043 27.6674 20.9069 30.705 20.0027C31.7742 19.6579 33.7376 19.8328 34.4471 20.1176C36.8652 21.0268 37.2549 22.5956 37.1499 23.9845C37.1499 23.9845 37.2449 24.1394 37.085 24.0994C35.4663 23.5698 34.497 22.6955 33.4429 22.136C32.9283 21.8612 32.4836 21.6064 32.1489 21.4016C31.994 21.2916 31.8591 21.3366 31.7292 21.3816" fill="#EE4799"/>
<path d="M44.1294 20.6771C43.1502 21.7613 42.3509 22.7505 41.7763 23.9096C41.7763 23.9096 41.6864 24.1744 41.5115 24.1694L41.3766 23.9645C41.1868 22.5257 40.7721 19.3632 43.8796 18.5238C45.0237 18.1941 46.8773 18.3939 47.5518 18.7087C49.83 19.7079 50.2646 21.1867 49.9349 22.5706C49.9349 22.5706 49.835 22.5057 49.7051 22.3908C48.2012 21.0468 47.6417 20.4773 46.4027 20.2575C45.8581 20.1625 45.2336 19.9227 44.8389 20.0027" fill="#EE4799"/>
<path d="M29.2262 8.51668C29.461 10.3003 30.2004 15.0116 31.989 15.6011C32.5786 15.6311 33.0882 15.2364 33.6127 14.7218C34.4671 13.8375 35.1565 12.7134 35.796 11.5843C35.4363 12.8383 35.0466 14.0873 34.3472 15.2813C33.4878 16.8401 31.7892 17.7494 30.1305 16.5753C27.7723 14.7518 26.7232 12.0339 25.634 9.35602L29.2262 8.51169V8.51668Z" fill="#EE4799"/>
<path d="M24.7947 23.8346C25.7289 24.7139 26.0887 25.9479 26.0137 27.0271C25.9388 28.1062 25.4292 29.3902 24.5948 30.1796C23.7905 30.944 22.5465 31.3487 21.3424 31.3037C20.2633 31.2837 19.4789 30.6042 18.6745 29.8748C18.6745 29.8748 18.3398 29.68 18.4447 29.66C19.0542 29.5251 19.1292 30.0797 19.7487 30.0397C21.3724 29.9248 22.3866 28.8406 23.2059 27.8115C24.0253 26.7823 24.9146 25.5532 24.7447 23.9595C24.7447 23.9595 24.6548 24.1343 24.7447 24.0894C24.8197 24.0544 24.7897 23.8296 24.7897 23.8296L24.7947 23.8346Z" fill="#EE4799"/>
<path d="M56.16 26.8422C55.2407 27.5916 54.0866 27.8015 53.2373 27.2369C52.3879 26.6724 52.0382 25.4783 52.2231 24.3842C52.323 23.7347 52.6227 23.275 53.1224 22.8504C53.1773 22.8154 53.1973 22.6905 53.2023 22.7555C53.2323 23.1302 53.2622 23.1451 53.2373 23.5199C53.1074 25.4783 54.3114 26.8822 56.2449 26.9172C56.2449 26.9172 56.3248 27.0471 56.2649 27.0571C56.1899 27.0671 56.16 26.8472 56.16 26.8472V26.8422Z" fill="#EE4799"/>
<path d="M55.0308 17.8693C68.3453 36.9992 52.1381 62.8438 29.0463 59.3266C14.1381 57.1234 4.13099 42.8396 7.17359 28.0713C11.7899 5.16933 41.6264 -1.19565 55.0308 17.8693ZM54.2515 18.4139C41.5864 0.433064 13.4386 6.88298 10.0613 28.5859C8.01792 41.1709 17.0308 54.0608 29.5559 56.4539C51.1039 60.7205 66.8066 36.4796 54.2565 18.4189L54.2515 18.4139Z" fill="#EE4799"/>
</svg>
