<svg id="Komponente_27_2" data-name="Komponente 27 – 2" xmlns="http://www.w3.org/2000/svg" xmlns:xlink="http://www.w3.org/1999/xlink" width="150.351" height="151.13" viewBox="0 0 150.351 151.13">
  <defs>
    <clipPath id="clip-path">
      <rect id="Rechteck_1228" data-name="Rechteck 1228" width="150.351" height="151.13" fill="none"/>
    </clipPath>
  </defs>
  <g id="Gruppe_217" data-name="Gruppe 217" clip-path="url(#clip-path)">
    <path id="Pfad_220" data-name="Pfad 220" d="M150.351,75.582c0,1.059-.491,2.129-.535,3.177s-.989,2.052-1.077,3.1.6,2.182.463,3.223-.022,2.15-.2,3.185-.311,2.116-.531,3.142-2.284,1.615-2.548,2.632.4,2.272.09,3.277-1.073,1.846-1.423,2.837-.288,2.124-.68,3.1.755,2.645.322,3.6-2.125,1.358-2.6,2.3-1.555,1.55-2.069,2.468-.435,2.18-.987,3.076-.9,1.943-1.491,2.814-2.118,1.076-2.744,1.922-1.858,1.169-2.52,1.987.435,3.108-.261,3.9-2.567.506-3.3,1.266-.017,2.981-.777,3.71-2.631.285-3.421.981-1.009,2.085-1.828,2.748-2.448.28-3.295.908-1.279,1.817-2.152,2.408-2.016.749-2.914,1.3-.9,2.674-1.816,3.189-3.065-1.265-4.006-.79-1.463,1.753-2.424,2.188-1.711,1.359-2.689,1.753-2.481-.661-3.476-.31-2,.494-3.005.8-1.93.706-2.952.971-1.991.495-3.024.716-2.035.263-3.076.44-1.778,2.228-2.827,2.361-2.042,1.08-3.1,1.168-2.233-1.7-3.29-1.652-2.082-.758-3.141-.758-2.051-.205-3.1-.249-2.091.413-3.137.325-2.307,1.736-3.348,1.6-2.1-.462-3.139-.639-1.637-2.591-2.663-2.811-2.495,1.459-3.511,1.195-1.666-1.841-2.671-2.148-1.856-.972-2.847-1.322-2.358.348-3.333-.045-1.565-1.651-2.523-2.084-2.141-.345-3.08-.819-2.737.607-3.655.093-1.25-2.1-2.145-2.654-1.85-1.044-2.721-1.634-.809-2.471-1.655-3.1-2.536-.131-3.355-.792-2.119-.793-2.909-1.489-.885-2.177-1.645-2.906-1.362-1.606-2.091-2.366-2.076-.961-2.772-1.752-.529-2.311-1.191-3.13-2.156-.994-2.783-1.841-.84-2-1.431-2.873-1.041-1.833-1.595-2.73-1.644-1.486-2.159-2.406-.4-2.181-.877-3.122-2.238-1.289-2.673-2.25.049-2.346-.345-3.325-.167-2.185-.518-3.18-1.648-1.68-1.957-2.69,1.066-2.479.8-3.5-1.5-1.783-1.721-2.816.433-2.205.256-3.247S.9,86.145.771,85.1s.608-2.18.52-3.234-.83-2.052-.874-3.109.36-2.114.36-3.172S-.042,73.44,0,72.393s.751-2.085.839-3.131,1.466-1.943,1.6-2.984-1.039-2.265-.863-3.3,1.881-1.759,2.1-2.785.014-2.113.278-3.129-.154-2.209.154-3.213S4.023,51.6,4.373,50.6,6.628,49.215,7.02,48.24s-.338-2.415.095-3.373.518-2.1.992-3.044,2.286-1.162,2.8-2.08.822-1.92,1.375-2.815,1.307-1.623,1.9-2.5.532-2.178,1.158-3.023S17,30.052,17.66,29.234s1.5-1.454,2.191-2.244.488-2.4,1.217-3.159,2.727-.219,3.487-.948-.089-3.195.7-3.891,2.5-.321,3.319-.983,1.379-1.645,2.226-2.272,1.507-1.53,2.379-2.121,1.545-1.533,2.442-2.086S37.5,10.5,38.416,9.984s2.313-.154,3.254-.63,1.577-1.59,2.538-2.025,1.666-1.547,2.645-1.941,2.708,1.2,3.7.845,2.052-.351,3.062-.66,1.7-1.594,2.726-1.859,1.857-1.333,2.89-1.555,2.14-.119,3.182-.3,2.271,1.076,3.319.943,1.946-1.412,3-1.5S70.811.537,71.868.493,74,1.6,75.058,1.6,77.222-.043,78.27,0s1.975,2.314,3.021,2.4,2.12-.278,3.161-.146,2.268-.877,3.3-.7,2.062.579,3.088.8,2.145.21,3.162.474,1.688,1.8,2.692,2.105,2.574-1.026,3.565-.676,1.861,1.16,2.836,1.552,1.168,2.607,2.126,3.041,2.257.092,3.195.567,2.483-.15,3.4.364,2.121.651,3.016,1.2.731,2.787,1.6,3.377,2.245.471,3.091,1.1,1.466,1.561,2.284,2.223,1.894,1.035,2.685,1.731,2.205.767,2.965,1.5-.364,3.342.365,4.1,2.676.374,3.372,1.164,1.284,1.69,1.946,2.509.5,2.262,1.127,3.108,2.453.842,3.044,1.714.437,2.239.991,3.136,2.2,1.175,2.711,2.095-.208,2.515.267,3.456.277,2.172.712,3.132.469,2.034.862,3.013,1.253,1.726,1.605,2.721,1.534,1.692,1.843,2.7.408,2.07.673,3.092,2.046,1.706,2.268,2.739-.257,2.238-.079,3.28.579,2.078.712,3.127-1.572,2.283-1.483,3.337.782,2.036.826,3.093,1.127,2.094,1.127,3.152" fill="#fff"/>
    <path id="Pfad_221" data-name="Pfad 221" d="M102.833,65.571s-2.087,13.3-12.766,16.985a23.81,23.81,0,0,1-19.373-1.911s-4.97-3.093-6.539-6.822-1.578-3.984-.5-4.623,1.494-.219,1.791.426,3.722,10.241,16.493,11.539S97.792,73.11,97.792,73.11a51.99,51.99,0,0,0,2.724-5.539c.556-1.66,1.744-2.189,2.317-2" fill="#e22e88"/>
    <path id="Pfad_222" data-name="Pfad 222" d="M50.663,117.069a1.153,1.153,0,0,1-.191.46.647.647,0,0,1-.42.282.633.633,0,0,1-.5-.1q-.717-.483-2.194-1.588a.48.48,0,0,1-.165-.222.253.253,0,0,1,.023-.24q.236-.353.856-1.152t1.109-1.526a13.827,13.827,0,0,0,.979-1.768q.474.376,1.321.946a12.821,12.821,0,0,0,1.7.966.856.856,0,0,1-.152.4.589.589,0,0,1-.4.252.643.643,0,0,1-.5-.108,7.8,7.8,0,0,1-.7-.566,7.931,7.931,0,0,0-.71-.573q-.5.636-.908,1.221c.267.219.563.437.891.657a2.729,2.729,0,0,0,.936.425.847.847,0,0,1-.153.405.662.662,0,0,1-.893.167,4.6,4.6,0,0,1-.6-.523,4.754,4.754,0,0,0-.6-.523c-.47.7-.8,1.224-.988,1.574q.308.244.49.367a4.7,4.7,0,0,0,1.767.762" fill="#e22e88"/>
    <path id="Pfad_223" data-name="Pfad 223" d="M53.524,115.375a1.984,1.984,0,0,1,.5.191.67.67,0,0,1,.32.357.513.513,0,0,1-.033.451,7.169,7.169,0,0,1-.493.726,7.32,7.32,0,0,0-.537.8,6.132,6.132,0,0,0-.591,1.439,1.527,1.527,0,0,1-.525-.178.746.746,0,0,1-.345-.34.455.455,0,0,1,.034-.418,5.348,5.348,0,0,1,.484-.68,5.988,5.988,0,0,0,.542-.789,6.7,6.7,0,0,0,.648-1.563m.961-1.536a1.386,1.386,0,0,1,.555.157.556.556,0,0,1,.295.322.583.583,0,0,1-.08.426.709.709,0,0,1-.392.333.607.607,0,0,1-.519-.046.54.54,0,0,1-.234-.83.852.852,0,0,1,.375-.362" fill="#e22e88"/>
    <path id="Pfad_224" data-name="Pfad 224" d="M59.074,118.841l-.771,1.586a4.517,4.517,0,0,0-.355,1.4,1.336,1.336,0,0,1-.517-.118.644.644,0,0,1-.336-.972q.136-.316.54-1.027t.487-.9a.341.341,0,0,0-.179-.513.911.911,0,0,0-.708.11,4.044,4.044,0,0,0-.868.55,2.514,2.514,0,0,0-.564.6,6.926,6.926,0,0,0-.322,1.16,1.56,1.56,0,0,1-.536-.126.729.729,0,0,1-.367-.3.431.431,0,0,1-.016-.406c.063-.144.2-.395.4-.751a10.271,10.271,0,0,0,.548-1.089,5.951,5.951,0,0,0,.377-1.348,1.51,1.51,0,0,1,.548.131.683.683,0,0,1,.372.342.54.54,0,0,1,0,.455,7.159,7.159,0,0,1-.374.7,3.536,3.536,0,0,1,1.137-.6,1.533,1.533,0,0,1,1.083,0,.746.746,0,0,1,.414,1.119" fill="#e22e88"/>
    <path id="Pfad_225" data-name="Pfad 225" d="M65.033,124.031A2.182,2.182,0,0,1,63.42,122.9a3.135,3.135,0,0,1-.188-2.11,3.258,3.258,0,0,1,1.2-1.961,2.437,2.437,0,0,1,2.1-.489,2.173,2.173,0,0,1,1.609,1.141,3.516,3.516,0,0,1-1,4.074,2.456,2.456,0,0,1-2.1.473m2.232-2.6a2.715,2.715,0,0,0-.069-1.589,1.515,1.515,0,0,0-2.031-.7,2.693,2.693,0,0,0-.525.814,4.9,4.9,0,0,0-.348,1.032,2.611,2.611,0,0,0,.072,1.56,1.394,1.394,0,0,0,1.1.812,1.021,1.021,0,0,0,.85-.2,2.78,2.78,0,0,0,.956-1.729" fill="#e22e88"/>
    <path id="Pfad_226" data-name="Pfad 226" d="M70.071,124.746a.757.757,0,0,1-.448-.174.434.434,0,0,1-.141-.382c.014-.157.064-.44.15-.851a10.338,10.338,0,0,0,.181-1.2,6.116,6.116,0,0,0-.063-1.391,1.462,1.462,0,0,1,.52-.051.622.622,0,0,1,.419.206.581.581,0,0,1,.143.464,2.765,2.765,0,0,1-.087.422,3.946,3.946,0,0,0-.1.421,3.373,3.373,0,0,1,.851-1.045,1.3,1.3,0,0,1,.9-.325.6.6,0,0,1,.461.25.779.779,0,0,1,.131.539.767.767,0,0,1-.208.5.5.5,0,0,1-.419.159,1.279,1.279,0,0,1-.381-.082.747.747,0,0,0,.04-.174c.019-.218-.05-.333-.207-.347-.238-.022-.482.195-.733.644a5.7,5.7,0,0,0-.537,1.283,6.079,6.079,0,0,0,.066,1.091,1.515,1.515,0,0,1-.544.049" fill="#e22e88"/>
    <path id="Pfad_227" data-name="Pfad 227" d="M74.441,119.782a1.177,1.177,0,0,1,.529-.128.588.588,0,0,1,.437.165.678.678,0,0,1,.17.5q0,.327-.038.744a3.966,3.966,0,0,0,1.165-.173.7.7,0,0,1,.1.372.394.394,0,0,1-.19.345.669.669,0,0,1-.386.134,2.387,2.387,0,0,1-.441-.047c-.163-.031-.269-.05-.319-.055,0,.048-.019.144-.044.289s-.043.27-.059.377a6.526,6.526,0,0,0-.062.944q0,1.1.73,1.1a1.354,1.354,0,0,0,.619-.187.675.675,0,0,1,.107.392.409.409,0,0,1-.263.373,1.39,1.39,0,0,1-.632.134q-1.436,0-1.441-1.6c0-.154.022-.434.067-.84a9.2,9.2,0,0,0,.065-.985,1.725,1.725,0,0,0-.627.138.57.57,0,0,1-.1-.332.4.4,0,0,1,.137-.312.492.492,0,0,1,.342-.125c.136,0,.226,0,.27.006a1.481,1.481,0,0,0,.008-.168,3.657,3.657,0,0,0-.143-1.057" fill="#e22e88"/>
    <path id="Pfad_228" data-name="Pfad 228" d="M81.829,123.232q-.022-.143-.366-1.837a1.746,1.746,0,0,0-.608.233.747.747,0,0,1-.154-.348.407.407,0,0,1,.087-.334.482.482,0,0,1,.3-.174c.123-.02.213-.031.266-.034a2.326,2.326,0,0,1,.38-1.612,1.937,1.937,0,0,1,1.359-.853,1.612,1.612,0,0,1,.862.072.68.68,0,0,1,.435.556.631.631,0,0,1-.141.516.756.756,0,0,1-.484.281.951.951,0,0,1-.163.009.854.854,0,0,0-.005-.186.761.761,0,0,0-.192-.427.5.5,0,0,0-.454-.1,1,1,0,0,0-.536.264,1.681,1.681,0,0,0-.163.634,3.073,3.073,0,0,0,.021.758l.186-.03a5.947,5.947,0,0,0,1.238-.367.711.711,0,0,1,.156.36.443.443,0,0,1-.128.39.748.748,0,0,1-.444.216l-.928.035.736,4.1c.054.342-.125.547-.539.611a2.082,2.082,0,0,1-.562-.006,11.232,11.232,0,0,0-.162-2.723" fill="#e22e88"/>
    <path id="Pfad_229" data-name="Pfad 229" d="M85.781,123.017l-.349-1.629a4.724,4.724,0,0,0-.6-1.366,1.472,1.472,0,0,1,.519-.237q.63-.168.814.521a10.085,10.085,0,0,1,.2,1.109,9.64,9.64,0,0,0,.183,1.041c.069.258.222.355.458.293.142-.038.277-.2.407-.485a4.012,4.012,0,0,0,.286-.922,2.665,2.665,0,0,0,.058-.782,8.451,8.451,0,0,0-.46-1.193,1.542,1.542,0,0,1,.491-.23.646.646,0,0,1,.485.044.548.548,0,0,1,.284.355,7.4,7.4,0,0,1,.14.816,9.562,9.562,0,0,0,.24,1.184,6.637,6.637,0,0,0,.486,1.258,2.036,2.036,0,0,1-.527.239c-.326.087-.545-.082-.658-.5a6.7,6.7,0,0,1-.142-.791,3.385,3.385,0,0,1-.488,1.26,1.434,1.434,0,0,1-.812.643.747.747,0,0,1-1.018-.624m-.914-4.925a1.125,1.125,0,0,1,.441-.217.364.364,0,0,1,.5.3.492.492,0,0,1-.054.4.517.517,0,0,1-.312.237.445.445,0,0,1-.34-.026.439.439,0,0,1-.195-.284,1.291,1.291,0,0,1-.041-.407m1.766-.47a1.171,1.171,0,0,1,.44-.217.365.365,0,0,1,.5.3.491.491,0,0,1-.054.4.507.507,0,0,1-.312.237.435.435,0,0,1-.341-.026.43.43,0,0,1-.193-.284,1.254,1.254,0,0,1-.041-.407" fill="#e22e88"/>
    <path id="Pfad_230" data-name="Pfad 230" d="M91.82,122.054a.751.751,0,0,1-.478.042.433.433,0,0,1-.294-.28q-.085-.222-.241-.831a10.334,10.334,0,0,0-.366-1.159,6.074,6.074,0,0,0-.67-1.221,1.486,1.486,0,0,1,.445-.274.636.636,0,0,1,.468,0,.578.578,0,0,1,.332.354,2.747,2.747,0,0,1,.108.417c.038.189.071.328.1.421a3.383,3.383,0,0,1,.3-1.314,1.288,1.288,0,0,1,.666-.688.606.606,0,0,1,.524.022.869.869,0,0,1,.386.961.5.5,0,0,1-.306.328,1.2,1.2,0,0,1-.379.094.746.746,0,0,0-.04-.173c-.079-.2-.191-.277-.338-.221q-.336.127-.375.9a5.69,5.69,0,0,0,.083,1.387,6,6,0,0,0,.54.951,1.49,1.49,0,0,1-.469.282" fill="#e22e88"/>
    <path id="Pfad_231" data-name="Pfad 231" d="M98.24,116.24a14.133,14.133,0,0,0,1.4,2.036,1.627,1.627,0,0,1-.428.364.766.766,0,0,1-.534.1.637.637,0,0,1-.444-.328c-.109-.186-.295-.554-.555-1.1s-.473-.962-.641-1.247a15.6,15.6,0,0,0-1.349-1.946q.544-.267,1.422-.784a12.681,12.681,0,0,0,1.605-1.117.866.866,0,0,1,.3.313.592.592,0,0,1,.054.471.643.643,0,0,1-.31.4,7.961,7.961,0,0,1-.814.388,7.494,7.494,0,0,0-.823.393q.387.785.743,1.42a10.17,10.17,0,0,0,.927-.491,2.736,2.736,0,0,0,.775-.653.863.863,0,0,1,.3.312.662.662,0,0,1-.231.875,3.991,3.991,0,0,1-.7.3,4.036,4.036,0,0,0-.7.3" fill="#e22e88"/>
    <path id="Pfad_232" data-name="Pfad 232" d="M103.515,111.212a7.87,7.87,0,0,0,.92,1.615,8.042,8.042,0,0,0,1.257,1.345,1.967,1.967,0,0,1-.428.436.484.484,0,0,1-.455.111.929.929,0,0,1-.408-.344,5.781,5.781,0,0,1-.468-.814,3.568,3.568,0,0,1,.014,1.9.984.984,0,0,1-.32.416,1.137,1.137,0,0,1-1.043.208,1.8,1.8,0,0,1-.944-.7,2.91,2.91,0,0,1-.6-1.79,1.8,1.8,0,0,1,.751-1.515,5.935,5.935,0,0,1,1.726-.867m-.573,1.021a2.7,2.7,0,0,0-.667.333,1.362,1.362,0,0,0-.578.755,3.584,3.584,0,0,0,.591,1.266,2.432,2.432,0,0,0,.538.528q.318.234.515.088.229-.171.1-1.1a8.2,8.2,0,0,0-.5-1.87" fill="#e22e88"/>
    <path id="Pfad_233" data-name="Pfad 233" d="M109.377,106.432l1.147,1.275a4.693,4.693,0,0,0,1.2.887,1.376,1.376,0,0,1-.3.436.645.645,0,0,1-1.028-.055c-.161-.162-.41-.458-.749-.885s-.556-.69-.654-.789c-.188-.189-.36-.206-.519-.05q-.261.258-.106,1.141a2.31,2.31,0,0,0,.449,1.178,5.626,5.626,0,0,0,1.045.733,1.827,1.827,0,0,1-.3.435.644.644,0,0,1-1.028-.053,10.349,10.349,0,0,1-.69-.825c-.311-.4-.511-.645-.6-.736a.339.339,0,0,0-.542-.027.875.875,0,0,0-.153.669,3.813,3.813,0,0,0,.18.965,1.955,1.955,0,0,0,.327.673,8,8,0,0,0,.988.768,1.568,1.568,0,0,1-.318.449.75.75,0,0,1-.417.227.432.432,0,0,1-.384-.138c-.111-.112-.292-.331-.544-.655a10.418,10.418,0,0,0-.8-.918,6.084,6.084,0,0,0-1.109-.854,1.529,1.529,0,0,1,.327-.458.67.67,0,0,1,.457-.216.58.58,0,0,1,.446.188c.067.07.218.249.454.541a3.316,3.316,0,0,1-.1-1.19,1.444,1.444,0,0,1,.388-.929.745.745,0,0,1,1.193.036c.1.1.209.222.32.358a3.6,3.6,0,0,1-.138-1.247,1.453,1.453,0,0,1,.378-.971.747.747,0,0,1,1.193.037" fill="#e22e88"/>
    <path id="Pfad_234" data-name="Pfad 234" d="M108.47,103.4a1.391,1.391,0,0,1,.25-.52.547.547,0,0,1,.367-.235.565.565,0,0,1,.4.151.705.705,0,0,1,.262.444.6.6,0,0,1-.134.5.54.54,0,0,1-.859.088.862.862,0,0,1-.291-.43m1.348,1.209a2.01,2.01,0,0,1,.272-.455.669.669,0,0,1,.407-.254.522.522,0,0,1,.44.11,7.67,7.67,0,0,1,.629.611,7.589,7.589,0,0,0,.7.669,6.113,6.113,0,0,0,1.314.829,1.516,1.516,0,0,1-.265.486.744.744,0,0,1-.393.281.454.454,0,0,1-.408-.105,5.612,5.612,0,0,1-.586-.593,5.775,5.775,0,0,0-.685-.67,6.7,6.7,0,0,0-1.426-.909" fill="#e22e88"/>
    <path id="Pfad_235" data-name="Pfad 235" d="M109.959,101.261a1.546,1.546,0,0,1,.229-.5.632.632,0,0,1,.411-.274.65.65,0,0,1,.506.129c.168.118.489.375.962.776s.853.7,1.142.9a17.165,17.165,0,0,0,2.2,1.308,1.613,1.613,0,0,1-.239.51.543.543,0,0,1-.852.17c-.157-.11-.449-.349-.877-.721a13.358,13.358,0,0,0-1.061-.85,16.58,16.58,0,0,0-2.423-1.451" fill="#e22e88"/>
    <path id="Pfad_236" data-name="Pfad 236" d="M111.618,99a1.377,1.377,0,0,1,.182-.547.55.55,0,0,1,.334-.279.564.564,0,0,1,.422.1.7.7,0,0,1,.316.407.607.607,0,0,1-.07.515.539.539,0,0,1-.84.195.84.84,0,0,1-.344-.389m1.492,1.03a1.941,1.941,0,0,1,.211-.487.667.667,0,0,1,.372-.3.514.514,0,0,1,.449.053,7.444,7.444,0,0,1,.7.526,7.379,7.379,0,0,0,.78.574,6.133,6.133,0,0,0,1.409.657,1.528,1.528,0,0,1-.2.515.729.729,0,0,1-.355.328.45.45,0,0,1-.417-.052,5.611,5.611,0,0,1-.657-.513,5.958,5.958,0,0,0-.763-.578,6.692,6.692,0,0,0-1.53-.719" fill="#e22e88"/>
    <path id="Pfad_237" data-name="Pfad 237" d="M116.762,97.993a1.838,1.838,0,0,0,.9.237.663.663,0,0,0,.578-.414.861.861,0,0,0,.046-.747,1.068,1.068,0,0,0-.524-.539.854.854,0,0,1,.337-.369.429.429,0,0,1,.427-.015.968.968,0,0,1,.5.851,2.127,2.127,0,0,1-.208,1.162,1.659,1.659,0,0,1-1.041.985,2.206,2.206,0,0,1-1.493-.278,2.442,2.442,0,0,1-1.209-1.226,1.853,1.853,0,0,1,.072-1.627,1.688,1.688,0,0,1,.711-.789,1.022,1.022,0,0,1,.961.045.965.965,0,0,1,.557.893,2.778,2.778,0,0,1-.329,1.335,5.49,5.49,0,0,1-.284.5M116.2,97.7a2.582,2.582,0,0,0,.272-.439,2.056,2.056,0,0,0,.247-.979,1.392,1.392,0,0,0-.25-.18A.484.484,0,0,0,116,96.1a.955.955,0,0,0-.379.436,1.012,1.012,0,0,0-.084.673,2.451,2.451,0,0,0,.665.5" fill="#e22e88"/>
    <path id="Pfad_238" data-name="Pfad 238" d="M118.483,90.27l1.626.68a4.521,4.521,0,0,0,1.417.273,1.352,1.352,0,0,1-.089.525q-.237.649-.952.389c-.216-.079-.567-.238-1.056-.48s-.8-.387-.928-.434q-.376-.138-.5.207a.906.906,0,0,0,.149.7,4.033,4.033,0,0,0,.6.835,2.513,2.513,0,0,0,.629.53,6.965,6.965,0,0,0,1.177.256,1.594,1.594,0,0,1-.1.541.739.739,0,0,1-.281.385.439.439,0,0,1-.406.038,8.416,8.416,0,0,1-.771-.359,9.534,9.534,0,0,0-1.119-.486,5.952,5.952,0,0,0-1.369-.3,1.611,1.611,0,0,1,.1-.555.685.685,0,0,1,.321-.39.547.547,0,0,1,.454-.03,7.311,7.311,0,0,1,.723.333,3.547,3.547,0,0,1-.66-1.1,1.532,1.532,0,0,1-.061-1.081.746.746,0,0,1,1.1-.478" fill="#e22e88"/>
    <path id="Pfad_239" data-name="Pfad 239" d="M73.581,61.2a21.2,21.2,0,0,0-2.96,4.919s.119.353-.117.355l-.173-.183c-.558-1.9-1.678-5.73,2.362-6.934a8.249,8.249,0,0,1,4.553.154c3.219,1.21,4.253,2.706,4.113,4.552,0,0-.053-.26-.266-.311a32.113,32.113,0,0,1-5.077-1.925,18.252,18.252,0,0,1-1.6-1.212c-.206-.146-.611-.3-.439-.323" fill="#e22e88"/>
    <path id="Pfad_240" data-name="Pfad 240" d="M91.666,58.71c-.58.213-1.394.186-1.721.545-1.3,1.443-1.428,3.392-2.194,4.935l-.818-.159-.026-.051c-.254-1.912-.9-5.7,3.232-6.809a7.966,7.966,0,0,1,4.578.282c3.028,1.328,3.657,2.827,3.221,4.666,0,0-.127.488-.342.427a24.683,24.683,0,0,1-4.651-2.616c-.624-.39-1.174-.995-1.576-1.287" fill="#e22e88"/>
    <path id="Pfad_241" data-name="Pfad 241" d="M70.542,43.465c.31,2.37,1.293,8.634,3.676,9.424a3.1,3.1,0,0,0,2.16-1.168,20.268,20.268,0,0,0,2.9-4.172,20.835,20.835,0,0,1-1.926,4.918c-1.14,2.07-3.4,3.285-5.6,1.718-3.138-2.426-4.528-6.042-5.982-9.6l4.777-1.122" fill="#e22e88"/>
    <path id="Pfad_242" data-name="Pfad 242" d="M37.351,93.657A22.192,22.192,0,0,1,31.6,95.651a20.842,20.842,0,0,1-4.969.871,1.016,1.016,0,0,1-.931-.312,2.123,2.123,0,0,1-.536-1.006,2.167,2.167,0,0,1,.019-1.231,1.056,1.056,0,0,1,.739-.733c.25-.187.489-.371.721-.554a.721.721,0,0,0,.262-.749.868.868,0,0,0-.683-.58c-.291-.035-.589-.069-.892-.1a.886.886,0,0,1-.838-.321,2.029,2.029,0,0,1-.526-.97,1.434,1.434,0,0,1,.633-1.84A29.343,29.343,0,0,1,30.07,86.26a20.859,20.859,0,0,1,4.987-.821,1.036,1.036,0,0,1,.731.373,2.007,2.007,0,0,1,.48.9A1.529,1.529,0,0,1,35.9,88.3a2.63,2.63,0,0,1-.739.281q-.483.126-1.67.309t-1.637.3q-.848.219-.806.521c.021.081.16.125.421.132a3.772,3.772,0,0,1,.706.094.76.76,0,0,1,.514.57c.086.333-.079.622-.5.864s-.611.42-.581.536q.207.371,1.16.126a15.9,15.9,0,0,0,1.776-.641,16.3,16.3,0,0,1,1.586-.592,1.146,1.146,0,0,1,.412-.051,1.638,1.638,0,0,1,1.1,1.339,1.43,1.43,0,0,1-.3,1.569" fill="#e22e88"/>
    <path id="Pfad_243" data-name="Pfad 243" d="M25.016,84.425a5.087,5.087,0,0,1-1.174-3.591,4.4,4.4,0,0,1,1.114-3.568q.341-.616,2.135-1.007a21.253,21.253,0,0,1,3.691-.391,10.78,10.78,0,0,1,3.854.354q.862.135.9,1.332c.018.629-.162.993-.541,1.086a4.645,4.645,0,0,1,.429,1.88,6.276,6.276,0,0,1-.281,2.026,4.256,4.256,0,0,1-.762,1.469,4.291,4.291,0,0,1-2.668.968,2.526,2.526,0,0,1-2.02-.71,3.3,3.3,0,0,1-1.032-2.345,5.009,5.009,0,0,1,.232-1.56c.169-.565.254-.835.254-.812q-.019-.676-.786-.655a1.6,1.6,0,0,0-.884.32,1.643,1.643,0,0,0-.619.83,4.046,4.046,0,0,0-.163,1.182,3.077,3.077,0,0,0,.4,1.365,2.736,2.736,0,0,1,.386.989,1.413,1.413,0,0,1-.246.774,2.07,2.07,0,0,1-1.182.481,1.4,1.4,0,0,1-1.03-.417m6.933-2.306a.65.65,0,0,0,.583-.267,1.953,1.953,0,0,0,.124-.628,1.744,1.744,0,0,0-.164-1.013.659.659,0,0,0-.626-.375q-.784.022-.927,1.295a.782.782,0,0,0,.253.742,1.09,1.09,0,0,0,.757.246" fill="#e22e88"/>
    <path id="Pfad_244" data-name="Pfad 244" d="M24.618,74.245q-1.912-.38-1.594-2.516a1.8,1.8,0,0,1,.654-1.264,2.478,2.478,0,0,1,1.087-.324,2.363,2.363,0,0,1,.558,0,1.913,1.913,0,0,1,1.325.733,2.266,2.266,0,0,1,.381,1.744A1.776,1.776,0,0,1,26.072,74a2.048,2.048,0,0,1-1.454.241m3.55.109q-.542-.394-.377-1.633.176-1.328.881-1.63a11.788,11.788,0,0,1,3.558.183,15.126,15.126,0,0,1,3.368.681q.551.324.356,1.794-.18,1.362-.739,1.5a11.606,11.606,0,0,1-3.909-.123,7.718,7.718,0,0,1-3.138-.776" fill="#e22e88"/>
    <path id="Pfad_245" data-name="Pfad 245" d="M36.238,67.93q.663.2.209,1.7a3.585,3.585,0,0,1-.5,1.062c-.205.286-.408.417-.612.392a34.048,34.048,0,0,1-5.452-1.241,12.492,12.492,0,0,1-3.872-1.6,1.168,1.168,0,0,1-.366-1.435,1.753,1.753,0,0,1,.456-.766.729.729,0,0,1,.668-.236,1.533,1.533,0,0,0,.253.058c.077.011.153-.066.228-.229a.786.786,0,0,0-.031-.7,2.355,2.355,0,0,1-.266-.844,3.443,3.443,0,0,1,.125-1.4,3.247,3.247,0,0,1,1.488-1.908,2.714,2.714,0,0,1,2.311-.279,25.1,25.1,0,0,1,2.778.693,17.734,17.734,0,0,1,4.3,1.748q.4.4.021,1.647-.342,1.128-.943,1.1a2.3,2.3,0,0,1-1.148-.18q-.321-.1-1.12-.367t-1.22-.4q-2.68-.813-2.812.056c-.032.311-.064.621-.1.933a.579.579,0,0,0,.245.546,5.048,5.048,0,0,0,1.278.506q.375.115,4.081,1.144" fill="#e22e88"/>
    <path id="Pfad_246" data-name="Pfad 246" d="M35.737,45.794q.945.674.212,2.037a2.354,2.354,0,0,0-.324,1.9,3.472,3.472,0,0,0,.764,1.2,14.327,14.327,0,0,0,1.2.989,2.821,2.821,0,0,0,1.116.556q1.3.181,1.733-.43a.883.883,0,0,0,.128-.764,1.165,1.165,0,0,0-.459-.678,1.024,1.024,0,0,0-.44-.183,1.885,1.885,0,0,1-1.712-.213,1.263,1.263,0,0,1-.161-.817q.016-.054.514-.752a1.741,1.741,0,0,1,1.154-.6c.455.018.915.038,1.379.064a4.717,4.717,0,0,1,3.009,3,4.169,4.169,0,0,1-.193,3.065,5.75,5.75,0,0,1-2.6,2.135,8.7,8.7,0,0,1-2.378.473,7.237,7.237,0,0,1-3.036-1.4,20.156,20.156,0,0,1-2.112-1.773q-2.849-3.656-.608-6.793,1.431-2.005,2.811-1.02" fill="#e22e88"/>
    <path id="Pfad_247" data-name="Pfad 247" d="M37.6,42.664q-.389-.865.715-1.932,1.063-1.031,1.868-.712a4.353,4.353,0,0,1,1.008.812,19.374,19.374,0,0,1,1.717,2.2,20.018,20.018,0,0,0,1.444,1.918,3.888,3.888,0,0,0,.448.412l.3.308q.869.9,1.936-.258a1,1,0,0,1,.9-.249,1.67,1.67,0,0,1,.837.507,1.468,1.468,0,0,1,.479,1.548A4.654,4.654,0,0,1,48.1,49.079a3.069,3.069,0,0,1-2.817.886q-1.21-.147-3.827-2.856-1.713-1.77-3.85-4.445" fill="#e22e88"/>
    <path id="Pfad_248" data-name="Pfad 248" d="M47.728,36.518q.313.537.954,1.987a14.691,14.691,0,0,0,.955,1.859q.775,1.17,1.6.667t-.045-1.812a14.3,14.3,0,0,0-1.377-1.657q-1.156-1.226-1.358-1.5a.812.812,0,0,1-.067-.942,2.5,2.5,0,0,1,.9-.962,2.911,2.911,0,0,1,1.3-.5A1.486,1.486,0,0,1,51.8,34a11.314,11.314,0,0,1,1.7,2.043,14.809,14.809,0,0,1,1.824,3.8,3.859,3.859,0,0,1,.209,2.688q.015.827-1.965,2.139-2.1,1.392-2.807.966a4.541,4.541,0,0,1-2.607-1.217,12.6,12.6,0,0,1-2.344-2.695,11.56,11.56,0,0,1-1.365-2.7,1.475,1.475,0,0,1,.1-1.328,2.933,2.933,0,0,1,1.013-1.056,3.159,3.159,0,0,1,1.251-.52.771.771,0,0,1,.836.244.948.948,0,0,1,.083.158" fill="#e22e88"/>
    <path id="Pfad_249" data-name="Pfad 249" d="M60.815,29.519a1.641,1.641,0,0,1,.68.829,1.186,1.186,0,0,1,.029.925,22.662,22.662,0,0,0-2.033,1.732,2.308,2.308,0,0,0-.7,2.41,2.919,2.919,0,0,0,1.22,1.291,2.787,2.787,0,0,0,1.556-.079,3.328,3.328,0,0,0,1.4-1.144,1.547,1.547,0,0,1,.549-.363,1.084,1.084,0,0,1,.888.023,1.242,1.242,0,0,1,.614.76,3.1,3.1,0,0,1,.1,1.6A4.352,4.352,0,0,1,64,38.962a4.772,4.772,0,0,1-1.386.873,8.222,8.222,0,0,1-1.729.375q-1.677.01-1.82-.011a5.063,5.063,0,0,1-1.463-.531,5.31,5.31,0,0,1-2.253-2.846,5,5,0,0,1-.315-1.276,7.777,7.777,0,0,1,1.411-3.958,4.677,4.677,0,0,1,1.6-1.566q.247-.151,1.45-.706a1.8,1.8,0,0,1,1.319.2" fill="#e22e88"/>
    <path id="Pfad_250" data-name="Pfad 250" d="M64.025,26.435c.011-.411.463-.684,1.358-.815a3.015,3.015,0,0,1,1.214.035.9.9,0,0,1,.706.617,5.653,5.653,0,0,1,.186.892c.024.154.058.388.105.707s.084.558.108.723q.258,1.731.752,1.908.618.036.925-.913c.175-.6.342-1.2.505-1.807q.385-1.032,1.108-1.14a2.252,2.252,0,0,1,1.461.333,1.586,1.586,0,0,1,.863,1.145,1.315,1.315,0,0,1-.008.433,5.412,5.412,0,0,1-2.2,3.378,4.783,4.783,0,0,1,1.917,1.122,5.412,5.412,0,0,1,1.494,2.521,1.215,1.215,0,0,1-.372,1.2,2.307,2.307,0,0,1-1.321.639,1.839,1.839,0,0,1-1.179-.167,6.057,6.057,0,0,1-.846-1.192,10.816,10.816,0,0,0-.8-1.27A1.1,1.1,0,0,0,69,34.3a1.4,1.4,0,0,0-.295.08,1.023,1.023,0,0,0-.267,1,7.144,7.144,0,0,0,.694,1.873q-.074.952-1.434,1.156a2.31,2.31,0,0,1-1.362-.177,1.294,1.294,0,0,1-.766-1.025q-.833-4.14-1.135-6.173a32.729,32.729,0,0,1-.414-4.6" fill="#e22e88"/>
    <path id="Pfad_251" data-name="Pfad 251" d="M84.077,28.99a1.279,1.279,0,0,1-.572.9,1.542,1.542,0,0,1-1.056.384.754.754,0,0,1-.367-.115,3.847,3.847,0,0,0-1.623-.6,1.137,1.137,0,0,0-.8.186.637.637,0,0,0-.271.545q0,.734,2.261,1.463a3.562,3.562,0,0,1,1.845,1.12,2.707,2.707,0,0,1,.419,1.827,2.872,2.872,0,0,1-2.279,2.687,9.163,9.163,0,0,1-2.715.205,8.182,8.182,0,0,1-2.746-.646,3.876,3.876,0,0,1-1.767-1.366,5.551,5.551,0,0,1,.2-1.292,1.341,1.341,0,0,1,.9-.85,1.021,1.021,0,0,1,.342-.03,3.386,3.386,0,0,1,1.242.533,3.364,3.364,0,0,0,1.3.537,1.14,1.14,0,0,0,.768-.232.826.826,0,0,0,.05-.212c.025-.367-.521-.669-1.637-.9a3.046,3.046,0,0,1-1.839-1.093,2.421,2.421,0,0,1-.574-1.775,3.5,3.5,0,0,1,1.858-2.824,5.545,5.545,0,0,1,3.386-.84,4.77,4.77,0,0,1,2.317.645,5.834,5.834,0,0,1,1.267,1.34.674.674,0,0,1,.1.4" fill="#e22e88"/>
    <path id="Pfad_252" data-name="Pfad 252" d="M87.237,26q.276-.552,1.576-.169a3.019,3.019,0,0,1,1.087.544.891.891,0,0,1,.379.855,4.385,4.385,0,0,1-.159.735c-.03.1-.075.252-.132.445s-.121.35-.148.441q-.283.957.092,1.329.546.292,1.226-.439.62-.709,1.221-1.427a1.52,1.52,0,0,1,1.488-.566,2.248,2.248,0,0,1,1.191.919,1.585,1.585,0,0,1,.3,1.4,1.348,1.348,0,0,1-.19.391,5.684,5.684,0,0,1-1.712,1.579,7.985,7.985,0,0,1-2.424,1.092,6,6,0,0,1,1.423,2.242,6.219,6.219,0,0,1,.45,3.333,1.216,1.216,0,0,1-.842.934,2.306,2.306,0,0,1-1.468.023,1.83,1.83,0,0,1-1-.648,6.062,6.062,0,0,1-.266-1.436,10.586,10.586,0,0,0-.193-1.489,1.1,1.1,0,0,0-.7-.857,1.322,1.322,0,0,0-.3-.051,1.019,1.019,0,0,0-.662.794,7.1,7.1,0,0,0-.159,1.991q-.469.834-1.788.445a2.292,2.292,0,0,1-1.16-.732,1.293,1.293,0,0,1-.264-1.252q.987-4.107,1.568-6.078A32.547,32.547,0,0,1,87.237,26" fill="#e22e88"/>
    <path id="Pfad_253" data-name="Pfad 253" d="M95.685,33.812q.544-.393,1.672.147,1.208.579,1.276,1.343a11.77,11.77,0,0,1-1.275,3.328,15.189,15.189,0,0,1-1.69,2.99q-.48.425-1.816-.216-1.24-.594-1.2-1.168a11.594,11.594,0,0,1,1.325-3.68,7.782,7.782,0,0,1,1.709-2.744m1.205-3.341q.953-1.7,2.885-.737a1.8,1.8,0,0,1,1,1.012,2.474,2.474,0,0,1-.029,1.135,2.258,2.258,0,0,1-.174.53,1.908,1.908,0,0,1-1.108,1.033,2.269,2.269,0,0,1-1.775-.177,1.784,1.784,0,0,1-1.021-1.34,2.045,2.045,0,0,1,.223-1.456" fill="#e22e88"/>
    <path id="Pfad_254" data-name="Pfad 254" d="M99.329,43.5q-.4.569-1.685-.334a3.568,3.568,0,0,1-.853-.805c-.208-.283-.268-.517-.182-.7a34.139,34.139,0,0,1,2.881-4.792,12.51,12.51,0,0,1,2.73-3.179,1.168,1.168,0,0,1,1.478.1,1.755,1.755,0,0,1,.586.673.729.729,0,0,1,.015.708,1.852,1.852,0,0,0-.134.223c-.035.07.015.166.147.288a.79.79,0,0,0,.674.189,2.322,2.322,0,0,1,.886.011,3.41,3.41,0,0,1,1.289.556,3.243,3.243,0,0,1,1.349,2.008,2.72,2.72,0,0,1-.457,2.283,25.168,25.168,0,0,1-1.525,2.423,17.78,17.78,0,0,1-3,3.536q-.505.253-1.572-.5-.965-.677-.745-1.236-.03-.237.529-1.035.193-.276.7-.949t.758-1.036q1.608-2.292.826-2.688l-.857-.383a.578.578,0,0,0-.6.062,5.067,5.067,0,0,0-.881,1.056q-.225.32-2.359,3.52" fill="#e22e88"/>
    <path id="Pfad_255" data-name="Pfad 255" d="M118.5,45.355a10.038,10.038,0,0,1-1.373,1.7q-1.346,1.437-2.826,2.781a14.387,14.387,0,0,1-4.033,2.887,2.183,2.183,0,0,1-1.6-.382,7.491,7.491,0,0,1-1.736-1.461,8.3,8.3,0,0,1-1.3-1.858,3.1,3.1,0,0,1-.448-1.689,4.725,4.725,0,0,1,1.518-2.9,3.558,3.558,0,0,1,2.854-1,4.015,4.015,0,0,1,1.767,1.071,3.392,3.392,0,0,1,.669,1.191,4.208,4.208,0,0,0,.321.8.289.289,0,0,0,.261.1,2.532,2.532,0,0,0,1.207-.687,11.554,11.554,0,0,0,1.354-1.577,13.421,13.421,0,0,1,1.009-1.263.653.653,0,0,1,.209-.142q.609-.312,1.568.746.923,1.017.576,1.671m-8.295,3.5c.467-.423.566-.836.3-1.235a4.989,4.989,0,0,0-.4-.552.863.863,0,0,0-1.151-.207,1.371,1.371,0,0,0-.3.2q-.5.458.142,1.485a1.039,1.039,0,0,0,.685.464.778.778,0,0,0,.728-.155" fill="#e22e88"/>
    <path id="Pfad_256" data-name="Pfad 256" d="M49.46,29.9a1.654,1.654,0,1,0,.032,2.339A1.654,1.654,0,0,0,49.46,29.9" fill="#e22e88"/>
    <path id="Pfad_257" data-name="Pfad 257" d="M44.585,33.208a1.654,1.654,0,1,0,.032,2.339,1.654,1.654,0,0,0-.032-2.339" fill="#e22e88"/>
    <path id="Pfad_258" data-name="Pfad 258" d="M105.811,56.982l.459-.321a36.88,36.88,0,0,1-4.557,47.379,36.408,36.408,0,0,1-38.776,7.7A36.688,36.688,0,0,1,49.423,52.714a36.248,36.248,0,0,1,10.9-8.039A36.727,36.727,0,0,1,73.09,41.219a25.868,25.868,0,0,1,3.269-.128,24.309,24.309,0,0,1,3.249.16c.538.055,1.078.07,1.611.158l1.594.284c.53.1,1.061.177,1.586.29l.929.256A27.173,27.173,0,0,1,88.5,43.2c.875.387,1.782.674,2.622,1.122l2.529,1.287,2.4,1.485c.8.5,1.517,1.109,2.279,1.651a37.479,37.479,0,0,1,7.684,8.093,34.972,34.972,0,0,0-8.179-8.032A32.767,32.767,0,0,0,87.5,43.963c-.5-.167-1.024-.244-1.535-.371l-.771-.172-.578-.13a11.678,11.678,0,0,0-1.511-.242,33.485,33.485,0,0,0-27.25,57.973,33.03,33.03,0,0,0,10.278,6.386,33.655,33.655,0,0,0,34.278-6,33.6,33.6,0,0,0,5.4-44.428" fill="#e22e88"/>
    <path id="Pfad_259" data-name="Pfad 259" d="M55.964,70.843c3.425-.452,7.218-.27,8.282-4.131.4-1.11.627-2.409,1.041-3.82,4.442,7.066-3.17,13.138-9.323,7.951" fill="#e22e88"/>
    <path id="Pfad_260" data-name="Pfad 260" d="M100.907,60.21c.565,2.324.721,4.95,3.458,5.4.793.194,1.705.253,2.707.434-4.536,3.582-9.28-1.21-6.165-5.83" fill="#e22e88"/>
  </g>
</svg>
