<svg xmlns="http://www.w3.org/2000/svg" width="55.103" height="38.65" viewBox="0 0 55.103 38.65">
  <g id="mailPink" transform="translate(21168.708 -16907.225)">
    <path id="Pfad_170" data-name="Pfad 170" d="M192.087,34.81A1.321,1.321,0,0,0,194,35a37.193,37.193,0,0,0,3.914-2.548c2.882-2.289,5.525-4.875,8.336-7.249,1.83-1.545,11.291-12.336,12.782-5.971.764,3.256.124,7.133-.158,10.422-.35,4.114-.607,8.28-1.074,12.378-.293,2.568-1.732,3.616-4.262,3.638-4.146.034-8.291.086-12.436.018a173.437,173.437,0,0,0-23.192,1.153c-2.583.3-6.5,1.28-8.937.055-2.79-1.4-2.581-6.532-3.023-9.173a90.087,90.087,0,0,1-1.191-10.755c-.155-3.479-1.115-8.619.272-11.881,1.753-4.108,5.1-.043,6.829,1.711a36.791,36.791,0,0,0,4.146,3.679c2.452,1.838,3.321.358.577-1.777-1.771-1.378-3.69-2.634-5.017-3.8-2.934-2.577-4.129-5.52.783-5.562,9.6-.08,19.517-1,29.069-.1,2.139.2,4.274.467,6.419.6,1.47.095,3.595-.6,4.878.365,3.162,2.376-1.158,6.3-2.824,7.705-3.352,2.836-6.607,5.81-9.808,8.814a37.212,37.212,0,0,1-4.565,3.308c-2.617,1.693-4.236,3.909-3.432,4.773m-9.36,8.725c6.679-.593,13.36-.817,20.062-1.027,3.141-.1,6.728.25,9.8-.477,2.269-.536,2.052-3.092,2.2-4.942.243-3.143.578-6.282.912-9.418q.134-1.236.269-2.472c.148-1.366-.47-2.783-1.352-2.572a3.466,3.466,0,0,0-1.428.774c-5.324,4.525-10.586,9.126-15.972,13.579-2.207,1.827-4.019,3.262-6.4.914-2.286-2.257-4.183-4.883-6.469-7.145a68.569,68.569,0,0,0-9.764-7.638c-3.585-2.436-7.175-.966-7.258,3.368-.061,3.209.323,5.285.414,9,.3,12.476,11.384,8.375,14.995,8.056M192.8,12.014c-3.369.257-6.8.079-10.207.119-4.335.05-6.822,3.034-4.431,4.729,1.574,1.116,3.326,2.085,4.4,2.966,1.585,1.3,3.067,2.723,4.54,4.16,2.435,2.376,5.628,4.519,6.82,3.624.829-.624,1.644-1.4,2.043-1.76,1.444-1.3,2.939-2.543,4.407-3.81s2.941-2.595,4.3-4c2.254-2.335,2.457-5.006.852-5.252-.959-.148-2-.261-2.918-.324a68.429,68.429,0,0,0-9.8-.449" transform="translate(-21333 16898.379)" fill="#e22e88" fill-rule="evenodd"/>
  </g>
</svg>
