<svg width="43" height="42" viewBox="0 0 43 42" fill="none" xmlns="http://www.w3.org/2000/svg">
<path d="M10.65 19.775L4 38.5L22.725 31.8675M7.5 5.25H7.5175M39 14H39.0175M26.75 3.5H26.7675M39 35H39.0175M39 3.5L35.08 4.8125C33.9642 5.18418 33.0121 5.93187 32.3864 6.92777C31.7608 7.92366 31.5005 9.10594 31.65 10.2725C31.825 11.7775 30.6525 13.125 29.1125 13.125H28.4475C26.9425 13.125 25.6475 14.175 25.3675 15.645L25 17.5M39 22.75L37.565 22.1725C36.06 21.5775 34.38 22.5225 34.1 24.115C33.9075 25.34 32.84 26.25 31.5975 26.25H30.25M19.75 3.5L20.3275 4.935C20.9225 6.44 19.9775 8.12 18.385 8.4C17.16 8.575 16.25 9.66 16.25 10.9025V12.25" stroke="#55476B" stroke-width="3.5" stroke-linecap="round" stroke-linejoin="round"/>
<path d="M19.75 22.75C23.1275 26.1275 24.7025 30.0475 23.25 31.5C21.7975 32.9525 17.8775 31.3775 14.5 28C11.1225 24.6225 9.5475 20.7025 11 19.25C12.4525 17.7975 16.3725 19.3725 19.75 22.75Z" stroke="#55476B" stroke-width="3.5" stroke-linecap="round" stroke-linejoin="round"/>
</svg>
