<svg xmlns="http://www.w3.org/2000/svg" width="24.722" height="26.769" viewBox="0 0 24.722 26.769">
  <path id="phone" d="M104.141,10.4a3.468,3.468,0,0,1-1.965-1.372c-1.091-1.52-.348-4.038.494-5.518,1.661-2.923,5.717-4.874,8.45-2.338,1.575,1.463,3,3.2,3.225,5.377a11.9,11.9,0,0,1-1.162,6.568,24.828,24.828,0,0,1-3.685,5.112c-1.59,1.819-2.987,3.861-4.675,5.585a9.012,9.012,0,0,1-4.829,2.66c-1.909.336-4.544.562-6.312-.34a8.17,8.17,0,0,1-3.607-3.978c-.937-2.107-.049-3.831,1.467-5.4s3.259-2.3,5.26-1.161c.773.439,1.78.962,1.8,1.989a1.783,1.783,0,0,0,.443,1.17c.46.535,2.579-.559,4.366-2.329a18.818,18.818,0,0,0,1.282-1.388c1.6-1.942.745-4.25-.549-4.637m1.944-1.808c1.2.068,1.24-.175,1.972,1.024a3.492,3.492,0,0,1-.2,4.144c-1.136,1.618-2.533,3.092-3.814,4.6-.994,1.167-2.177,3.295-3.772,3.681-1.142.277-3.239-1.707-3.39-2.75-.2-1.385-1.253-2.646-2.745-1.892-3.152,1.589-2.641,4.9-.088,6.706,2.212,1.567,7.051.589,8.741-1.419,2.668-3.172,6.077-6.142,8-9.85,1.871-3.6,1.746-7.088-1.286-9.965-1.313-1.244-2.092-.649-3.449.245-5.4,3.555-.55,5.446.027,5.479" transform="translate(-89.69 0)" fill="#fff" fill-rule="evenodd"/>
</svg>
