<svg xmlns="http://www.w3.org/2000/svg" width="44.821" height="48.533" viewBox="0 0 44.821 48.533">
  <g id="phonePink" transform="translate(21079.018 -16907.225)">
    <path id="Pfad_171" data-name="Pfad 171" d="M280.181,27.7a6.288,6.288,0,0,1-3.562-2.487c-1.978-2.756-.631-7.322.9-10,3.012-5.3,10.365-8.836,15.32-4.238,2.856,2.653,5.433,5.8,5.846,9.749a21.576,21.576,0,0,1-2.106,11.909,45.016,45.016,0,0,1-6.682,9.268c-2.882,3.3-5.415,7-8.475,10.125a16.338,16.338,0,0,1-8.755,4.822c-3.461.609-8.238,1.019-11.444-.616a14.812,14.812,0,0,1-6.54-7.213c-1.7-3.821-.089-6.946,2.66-9.792s5.908-4.164,9.536-2.1c1.4.8,3.227,1.745,3.259,3.606a3.229,3.229,0,0,0,.8,2.121c.833.97,4.676-1.013,7.915-4.223a34.107,34.107,0,0,0,2.324-2.516c2.9-3.521,1.351-7.706-.995-8.407m3.524-3.277c2.169.124,2.248-.318,3.575,1.856a6.332,6.332,0,0,1-.362,7.512c-2.06,2.934-4.592,5.606-6.915,8.335-1.8,2.116-3.948,5.973-6.84,6.674-2.071.5-5.872-3.095-6.146-4.986-.366-2.511-2.272-4.8-4.977-3.43-5.714,2.88-4.788,8.883-.16,12.157,4.01,2.841,12.783,1.068,15.847-2.572,4.838-5.751,11.018-11.135,14.513-17.858,3.393-6.522,3.166-12.851-2.332-18.066-2.381-2.255-3.793-1.177-6.253.443-9.789,6.445-1,9.873.049,9.934" transform="translate(-21333 16898.379)" fill="#e22e88" fill-rule="evenodd"/>
  </g>
</svg>
