<svg xmlns="http://www.w3.org/2000/svg" width="45.421" height="60.007" viewBox="0 0 45.421 60.007">
  <g id="pinPink" transform="translate(21333 -16898.379)">
    <path id="Pfad_182" data-name="Pfad 182" d="M.75,30.51C-.639,23.933-.444,17.069,4.327,11.882S14.217,1.415,21.519.257c13.495-2.144,24.1,9.446,23.9,22.314C45.3,30.2,39.7,37.519,36.246,44.054c-2.023,3.836-3.9,7.819-6.011,11.652-2.818,5.127-9.006,5.666-12.92,1.642-2.418-2.487-4.953-5.175-6.895-7.468-5.16-6.093-8-11.474-9.671-19.37m40.282-5.116C43.548,13.592,34.314,1,21.542,4.033c-5.957,1.413-10.028,6.1-14.3,10.127C2.765,18.384,2.827,24.7,3.965,30.327c1.638,8.106,6.687,15.12,12.572,21.079,4.11,4.163,9.786,3.528,12.181-.882,1.458-2.686,3-5.5,4.4-7.951,3.087-5.4,6.6-11.015,7.912-17.18" transform="translate(-21333 16898.379)" fill="#e22e88" fill-rule="evenodd"/>
    <path id="Pfad_183" data-name="Pfad 183" d="M22.777,8.192c8.278.439,19.548,5.921,15,16.208A22.182,22.182,0,0,1,18.553,38.023C9.078,38.733,4.263,31.179,6,22.377c1.66-8.383,8.4-14.421,16.772-14.184M9.377,24.923c-.414,7.69,4.6,11.07,11.845,9.718,6-1.12,11.852-6.169,13.389-12.2,1.122-4.4-.713-6.919-3.591-8.5-4.885-2.682-11.6-2.394-13.8-1.37a10.883,10.883,0,0,0-3.56,2.534,16.053,16.053,0,0,0-4.283,9.817" transform="translate(-21332.666 16898.865)" fill="#e22e88" fill-rule="evenodd"/>
  </g>
</svg>
