<svg width="30" height="30" viewBox="0 0 30 30" fill="none" xmlns="http://www.w3.org/2000/svg">
<path d="M6.25 27.5C5.5625 27.5 4.97417 27.2554 4.485 26.7663C3.99583 26.2771 3.75083 25.6883 3.75 25V7.5C3.75 6.8125 3.995 6.22417 4.485 5.735C4.975 5.24583 5.56333 5.00083 6.25 5H7.5V2.5H10V5H20V2.5H22.5V5H23.75C24.4375 5 25.0263 5.245 25.5163 5.735C26.0063 6.225 26.2508 6.81333 26.25 7.5V25C26.25 25.6875 26.0054 26.2763 25.5163 26.7663C25.0271 27.2563 24.4383 27.5008 23.75 27.5H6.25ZM6.25 25H23.75V12.5H6.25V25ZM6.25 10H23.75V7.5H6.25V10ZM8.75 17.5V15H21.25V17.5H8.75ZM8.75 22.5V20H17.5V22.5H8.75Z" fill="white"/>
</svg>
