<svg width="49" height="48" viewBox="0 0 49 48" fill="none" xmlns="http://www.w3.org/2000/svg">
<path d="M10.5 44C9.4 44 8.45867 43.6087 7.676 42.826C6.89333 42.0433 6.50133 41.1013 6.5 40V12C6.5 10.9 6.892 9.95867 7.676 9.176C8.46 8.39333 9.40133 8.00133 10.5 8H12.5V4H16.5V8H32.5V4H36.5V8H38.5C39.6 8 40.542 8.392 41.326 9.176C42.11 9.96 42.5013 10.9013 42.5 12V40C42.5 41.1 42.1087 42.042 41.326 42.826C40.5433 43.61 39.6013 44.0013 38.5 44H10.5ZM10.5 40H38.5V20H10.5V40ZM10.5 16H38.5V12H10.5V16ZM14.5 28V24H34.5V28H14.5ZM14.5 36V32H28.5V36H14.5Z" fill="#55476B"/>
</svg>
