<svg xmlns="http://www.w3.org/2000/svg" width="32.31" height="29.226" viewBox="0 0 32.31 29.226">
  <g id="programm" transform="translate(20362.501 1971.643)">
    <g id="Gruppe_307" data-name="Gruppe 307" transform="translate(-20362.5 -1971.643)">
      <path id="Pfad_298" data-name="Pfad 298" d="M159.78,12.2c.549-.077,1.045-.146,1.54-.214,1.094-.153,1.857-.6,1.97-1.857.027-.309.567-.578,1.157-.7a14.253,14.253,0,0,0,2.871-.722,1.335,1.335,0,0,1,1.576.148,1.692,1.692,0,0,1,.4,1.1c.079.656,1.765,1.077,3.757.945s3.636-.712,3.67-1.3a7.577,7.577,0,0,1,.116-1.05c.166-.83.762-1.344,1.539-.906.625.348.924.512,1.575-.015.748-.6,1.571-.122,1.978.614a2.676,2.676,0,0,0,2.7,1.3c1.209,0,2.42.044,3.631.069,1.682.034,1.961.452,1.833,2.035a85.806,85.806,0,0,0-.379,14.886,29.387,29.387,0,0,1-.052,5.1c-.137,1.636-.985,2.114-2.721,2.188q-4.685.194-9.363.625c-3.044.277-6.085.655-9.119,1.051-1.966.26-3.92.625-5.876.96-2.114.367-2.581-.032-2.851-2.174-.224-1.757-.707-3.482-.882-5.242-.416-4.165-.777-8.332-1.028-12.506a10.356,10.356,0,0,1,.128-2.067A2.622,2.622,0,0,1,159.78,12.2m5.346,22.11c.893-.08,1.8-.169,2.7-.285,1.762-.227,3.5-.662,5.264-.84,3.534-.355,7.1-.444,10.611-.932,4.669-.648,4.145-.268,4.24-4.785.085-4.19.1-8.383.112-12.57,0-.6-.041-1.189-.1-1.83-.085-1.008-1.3-1.724-2.721-1.6s-2.458,1.079-2.319,2.128a1.776,1.776,0,0,1-1.573,2.057c-.638.055-1.231.112-1.82.2-1.693.24-1.957.058-2.082-1.685s-.512-2.04-2.266-1.869a15.349,15.349,0,0,0-2.879.526,4.33,4.33,0,0,0-2.792,2.206,5.921,5.921,0,0,1-.216.95,1.565,1.565,0,0,1-1.618,1.109,13.759,13.759,0,0,0-3.086.443c-1.986.547-2.644-.034-2.226-2.1.064-.317.111-.637.161-1,.076-.556-.567-.947-1.437-.874s-2.076,2.874-1.9,6.283a54.782,54.782,0,0,0,1.21,8.9c.75,3.329,3.248,5.7,4.738,5.569m2.155-20.056c1.047-1.362-.936-2.851-1.562-2.7a2.1,2.1,0,0,0-1.257,1.878c-.068.887,1.771,2.186,2.819.823m13.155-2.918c-.149-1.453-1.18-1.207-1.182.126s1.331,1.327,1.182-.126" transform="translate(-157.809 -7.357)" fill="#fff" fill-rule="evenodd"/>
      <path id="Pfad_299" data-name="Pfad 299" d="M166.6,37.267a1.86,1.86,0,0,1-1.251-.2c-.651-.333-1.035-.8-.777-1.426a1.647,1.647,0,0,1,1.154-.917,4.244,4.244,0,0,1,1.232.237,5.884,5.884,0,0,0,2.766-.462,2.433,2.433,0,0,1,1.734.083c.169.069.571-.186.742-.39.588-.713,1.209-.629,1.953-.269a1.4,1.4,0,0,1,.984,1.553,1.179,1.179,0,0,1-1.45,1.067,7.022,7.022,0,0,0-3.649.548A2.084,2.084,0,0,1,168.89,37a5.9,5.9,0,0,0-2.287.267" transform="translate(-159.289 -16.47)" fill="#fff" fill-rule="evenodd"/>
      <path id="Pfad_300" data-name="Pfad 300" d="M192.367,32.895a2.907,2.907,0,0,1,2.27-.045,1.378,1.378,0,0,1,.452,2.5,2.908,2.908,0,0,1-3.713.27,4.193,4.193,0,0,1-.391-.276c-.209-.163-.9-.005-1.545.352-.394.218-.785.427-1.185.613a1.311,1.311,0,0,1-1.9-.54,1.558,1.558,0,0,1,.505-2.119,2.2,2.2,0,0,1,1.992-.556,5.054,5.054,0,0,0,3.511-.2" transform="translate(-169.352 -16.858)" fill="#fff" fill-rule="evenodd"/>
      <path id="Pfad_301" data-name="Pfad 301" d="M165.567,31.518a1.832,1.832,0,0,1-1.736-.646,2.011,2.011,0,0,1-.195-2.7,1.566,1.566,0,0,1,1.507-.548,7.52,7.52,0,0,0,3.1.039,11.442,11.442,0,0,1,1.563-.466,1.8,1.8,0,0,1,2.256,1.361,1.974,1.974,0,0,1-1.508,2.23,7.133,7.133,0,0,1-1.633,0,16.065,16.065,0,0,0-3.354.731" transform="translate(-159.004 -15.404)" fill="#fff" fill-rule="evenodd"/>
      <path id="Pfad_302" data-name="Pfad 302" d="M180.572,43.85c-1.178.1-2.517-.753-2.391-1.437a1.494,1.494,0,0,1,.743-.972,3,3,0,0,1,2.063-.515c1.188.167,2.277.617,2.729.2a3.509,3.509,0,0,1,.9-.651,2.368,2.368,0,0,1,1.844-.083,2.119,2.119,0,0,1,.712,1.555,1.271,1.271,0,0,1-1.32,1.293,10.355,10.355,0,0,1-1.693-.076c-.932-.1-2.41.594-3.588.689" transform="translate(-166.773 -19.577)" fill="#fff" fill-rule="evenodd"/>
      <path id="Pfad_303" data-name="Pfad 303" d="M169.178,45.091a1.7,1.7,0,0,0-1.146.358,1.47,1.47,0,0,1-1.39-.084,1.372,1.372,0,0,1-.411-1.938c.315-.4,1.135-.906,1.416-.758.87.447,1.49.051,2.243-.191a1.787,1.787,0,0,1,2.1.745c.184.275.259.926.085,1.086a6.006,6.006,0,0,1-.856.65,3.634,3.634,0,0,1-2.044.132" transform="translate(-161.228 -21.597)" fill="#fff" fill-rule="evenodd"/>
      <path id="Pfad_304" data-name="Pfad 304" d="M201.774,41.811a3.448,3.448,0,0,1-.038.356c-.389,1.991-2.32,1.608-3.559,2.265a2.106,2.106,0,0,1-2.831-.681,2.256,2.256,0,0,1,.585-3.252c1-.769,3.79-.993,4.813-.271a2.858,2.858,0,0,1,.58.57,1.945,1.945,0,0,1,.451,1.014" transform="translate(-174.42 -20.555)" fill="#fff" fill-rule="evenodd"/>
      <path id="Pfad_305" data-name="Pfad 305" d="M197.584,24.826c1.8-.04,3.155.818,3.248,2.05a2.5,2.5,0,0,1-2.771,2.532c-1.759,0-3.175-1.154-3.124-2.549.04-1.187,1.1-2,2.647-2.033" transform="translate(-173.363 -15.175)" fill="#fff" fill-rule="evenodd"/>
      <path id="Pfad_306" data-name="Pfad 306" d="M190.876,27.231a2.032,2.032,0,0,1-1.686,1.789,1.516,1.516,0,0,1-1.6-1.34,2.118,2.118,0,0,1,1.744-1.948,1.962,1.962,0,0,1,1.541,1.5" transform="translate(-169.762 -14.775)" fill="#fff" fill-rule="evenodd"/>
      <path id="Pfad_307" data-name="Pfad 307" d="M180.1,29.743c-.8-.014-1.91-1-1.9-1.7.011-.633.9-1.216,1.819-1.2a1.831,1.831,0,0,1,1.631,1.672,1.39,1.39,0,0,1-1.553,1.221" transform="translate(-164.532 -15.16)" fill="#fff" fill-rule="evenodd"/>
    </g>
  </g>
</svg>
