<svg width="34" height="36" viewBox="0 0 34 36" fill="none" xmlns="http://www.w3.org/2000/svg">
<path d="M0.5 0.5V15.1667C0.5 17.1116 1.27262 18.9769 2.64788 20.3521C4.02315 21.7274 5.88841 22.5 7.83333 22.5H15.1667C17.1116 22.5 18.9768 21.7274 20.3521 20.3521C21.7274 18.9769 22.5 17.1116 22.5 15.1667V13.3333H26.1667C28.2017 13.3333 29.8333 11.7017 29.8333 9.66667V4.16667C29.8333 3.19421 29.447 2.26158 28.7594 1.57394C28.0718 0.886308 27.1391 0.5 26.1667 0.5H0.5ZM4.16667 4.16667H18.8333V15.1667C18.8333 16.1391 18.447 17.0718 17.7594 17.7594C17.0718 18.447 16.1391 18.8333 15.1667 18.8333H7.83333C6.86087 18.8333 5.92824 18.447 5.24061 17.7594C4.55297 17.0718 4.16667 16.1391 4.16667 15.1667V4.16667ZM22.5 4.16667H26.1667V9.66667H22.5V4.16667ZM25.5617 20.355L22.9767 22.94L26.1667 26.1667H0.5V29.8333H26.1667L22.9767 33.06L25.5617 35.645L33.2067 28L25.5617 20.355Z" fill="white"/>
</svg>
