<svg width="34" height="36" viewBox="0 0 34 36" fill="none" xmlns="http://www.w3.org/2000/svg">
<path d="M0.5 0V14.6667C0.5 16.6116 1.27262 18.4769 2.64788 19.8521C4.02315 21.2274 5.88841 22 7.83333 22H15.1667C17.1116 22 18.9768 21.2274 20.3521 19.8521C21.7274 18.4769 22.5 16.6116 22.5 14.6667V12.8333H26.1667C28.2017 12.8333 29.8333 11.2017 29.8333 9.16667V3.66667C29.8333 2.69421 29.447 1.76158 28.7594 1.07394C28.0718 0.386308 27.1391 0 26.1667 0H0.5ZM4.16667 3.66667H18.8333V14.6667C18.8333 15.6391 18.447 16.5718 17.7594 17.2594C17.0718 17.947 16.1391 18.3333 15.1667 18.3333H7.83333C6.86087 18.3333 5.92824 17.947 5.24061 17.2594C4.55297 16.5718 4.16667 15.6391 4.16667 14.6667V3.66667ZM22.5 3.66667H26.1667V9.16667H22.5V3.66667ZM25.5617 19.855L22.9767 22.44L26.1667 25.6667H0.5V29.3333H26.1667L22.9767 32.56L25.5617 35.145L33.2067 27.5L25.5617 19.855Z" fill="#E22E88"/>
</svg>
