<svg width="187" height="221" viewBox="0 0 187 221" fill="none" xmlns="http://www.w3.org/2000/svg">
<g opacity="0.53" clip-path="url(#clip0_31_725)">
<mask id="mask0_31_725" style="mask-type:luminance" maskUnits="userSpaceOnUse" x="42" y="26" width="103" height="170">
<path d="M144.595 26.0046L144.545 194.969L42.2056 195.031L42.2548 26.0663L144.595 26.0046Z" fill="white"/>
</mask>
<g mask="url(#mask0_31_725)">
<path d="M106.475 70.3322C105.2 64.0878 104.155 58.3548 102.842 52.6844C101.079 45.0738 97.6074 38.3641 91.6978 33.0855C80.7605 23.314 65.33 23.7305 55.0779 34.2487C46.6676 42.8785 42.5062 53.753 42.3263 65.3916C42.1013 79.8956 42.1403 94.6909 44.6983 108.884C48.9251 132.337 50.7923 155.658 48.304 179.346C47.9781 182.449 47.7595 185.604 47.9298 188.71C48.2978 195.424 50.2414 196.453 56.1655 193.356C56.9803 192.93 58.0965 191.675 58.3895 191.864C65.2692 196.296 69.4931 190.306 74.1712 187.552C95.613 174.93 114.962 159.764 129.755 139.436C138.719 127.12 145.455 113.856 144.478 98.1027C144.163 93.0163 143.012 87.7226 141.012 83.0528C136.22 71.8679 126.843 67.0511 114.922 68.7817C112.252 69.1693 109.609 69.7509 106.475 70.3325M59.1878 187.149C59.1888 183.758 59.0172 182.362 59.2147 181.021C62.7542 156.99 60.7623 133.275 56.3469 109.502C54.0784 97.2904 52.8459 84.6897 53.0186 72.2891C53.1306 64.2367 55.915 55.962 58.8188 48.2831C61.2373 41.8881 66.569 37.4301 74.0786 37.517C82.0373 37.6096 86.8471 42.6567 89.8128 49.3226C91.7677 53.7176 92.8707 58.5309 94.0091 63.2407C95.9295 71.1876 94.7415 77.1556 86.8835 82.6017C72.2921 92.7159 65.5628 107.987 65.1237 125.633C64.8257 137.61 72.489 142.889 83.6862 138.639C94.7616 134.436 102.573 126.74 104.815 114.776C106.088 107.986 106.296 100.987 106.793 94.0683C107.034 90.7188 106.837 87.3382 106.838 84.5369C124.837 77.3651 133.567 83.5213 132.96 101.47C132.647 110.75 130.027 119.609 124.454 126.823C116.205 137.504 107.739 148.288 97.827 157.344C86.3616 167.818 73.2275 176.467 59.1878 187.149ZM75.9407 129.225C76.8427 113.267 81.8335 100.817 95.1435 91.6285C98.5947 114.357 92.8116 126.187 75.9407 129.225Z" fill="#F5FAF3"/>
</g>
</g>
<defs>
<clipPath id="clip0_31_725">
<rect width="189.736" height="142.482" fill="white" transform="matrix(-0.258819 0.965926 0.965926 0.258819 49.1592 0.445679)"/>
</clipPath>
</defs>
</svg>
