<svg xmlns="http://www.w3.org/2000/svg" xmlns:xlink="http://www.w3.org/1999/xlink" width="27.569" height="26.44" viewBox="0 0 27.569 26.44">
  <defs>
    <clipPath id="clip-path">
      <rect id="Rechteck_1651" data-name="Rechteck 1651" width="27.569" height="26.44" fill="#55476b"/>
    </clipPath>
    <clipPath id="clip-path-2">
      <rect id="Rechteck_1654" data-name="Rechteck 1654" width="20.318" height="17.889" fill="#55476b"/>
    </clipPath>
    <clipPath id="clip-path-3">
      <rect id="Rechteck_1653" data-name="Rechteck 1653" width="19.957" height="17.559" fill="#55476b"/>
    </clipPath>
  </defs>
  <g id="Gruppe_619" data-name="Gruppe 619" transform="translate(15777.45 16352.639)">
    <g id="Gruppe_547" data-name="Gruppe 547" transform="translate(-15777.45 -16352.639)">
      <g id="Gruppe_543" data-name="Gruppe 543" clip-path="url(#clip-path)">
        <path id="Pfad_706" data-name="Pfad 706" d="M18.922,26.435a2.7,2.7,0,0,1-2.161-.777c-.726-.683-1.525-1.285-2.286-1.931a11.274,11.274,0,0,1-1.9-1.958c-.459-.634-.652-.664-1.314-.31-.842.45-1.674.919-2.491,1.414-.74.448-1.437.97-2.185,1.406-.708.411-1.457.754-2.19,1.119a1.629,1.629,0,0,1-.374.11c-.909.2-1.365-.245-1.093-1.152.31-1.037.71-2.047,1.058-3.074.53-1.556,1.049-3.116,1.538-4.572A1.487,1.487,0,0,0,4.591,15.7a7.874,7.874,0,0,1-3.43-3.265,7.144,7.144,0,0,0-.82-1.169A1.03,1.03,0,0,1,1.17,9.475c.387.017.781-.1,1.167-.076,1.829.1,3.634-.219,5.546-.272a15.309,15.309,0,0,0,.993-1.3c.978-1.588,1.91-3.2,2.885-4.8.589-.961,1.216-1.9,1.847-2.836a.611.611,0,0,1,.425-.2c.076,0,.212.159.238.267a23.834,23.834,0,0,0,2.043,5.039c.423.852.9,1.675,1.363,2.51a1.653,1.653,0,0,0,1.564.942c2.472.04,4.928.419,7.406.4a1.123,1.123,0,0,1,.693.253.733.733,0,0,1,.016,1.051.616.616,0,0,1-.092.092c-1.308,1-2.342,2.325-3.788,3.161a5.8,5.8,0,0,0-.719.558c-.5.41-1,.83-1.5,1.235a2.745,2.745,0,0,0-1.232,2.039c-.072,1.3-.232,2.588-.353,3.882-.02.216-.021.433-.046.647-.127,1.076-.246,2.153-.4,3.225a9.522,9.522,0,0,1-.3,1.135m-14.556-2.2a8.914,8.914,0,0,0,.918-.425c.7-.431,1.378-.9,2.082-1.332,1.186-.72,2.388-1.413,3.578-2.127a1.242,1.242,0,0,1,1.655.206c.278.273.533.571.8.859a19.073,19.073,0,0,0,4.067,3.422,3.126,3.126,0,0,0,.782.2c.091-.646.176-1.2.245-1.75q.382-3.1.755-6.2c-.277-.881.3-1.389.866-1.862,1.063-.891,2.162-1.738,3.24-2.611.706-.574,1.411-1.15,2.092-1.751.129-.114.145-.358.218-.553a2.035,2.035,0,0,0-.443-.173c-1.855-.169-3.709-.339-5.566-.483a5.085,5.085,0,0,0-1.031.094c-.585.073-.754,0-1.044-.52-.358-.644-.73-1.28-1.066-1.936-.532-1.035-1.068-2.071-1.549-3.131-.322-.708-.54-1.464-.83-2.189-.053-.134-.226-.22-.4-.375-.2.258-.364.447-.5.659-1,1.576-1.976,3.162-2.844,4.816C9.908,8,9.383,8.9,8.855,9.79a3.843,3.843,0,0,1-.531.582,4.593,4.593,0,0,0-2.7-.223c-.861.082-1.72.224-2.582.244A4.612,4.612,0,0,0,1.3,10.75a.45.45,0,0,0-.027.146,1.875,1.875,0,0,0,.109.365,7.17,7.17,0,0,0,2.158,2.566c.784.61,1.579,1.214,2.4,1.769a1.129,1.129,0,0,1,.509,1.434,52.148,52.148,0,0,1-1.768,5.3,2.992,2.992,0,0,0-.312,1.91" transform="translate(0 0)" fill="#55476b" fill-rule="evenodd"/>
      </g>
    </g>
    <g id="Gruppe_559" data-name="Gruppe 559" transform="translate(-15773.824 -16348.363)">
      <g id="Gruppe_554" data-name="Gruppe 554" clip-path="url(#clip-path-2)">
        <g id="Gruppe_553" data-name="Gruppe 553" transform="translate(0.18 0.165)">
          <g id="Gruppe_552" data-name="Gruppe 552" clip-path="url(#clip-path-3)">
            <g id="Gruppe_551" data-name="Gruppe 551">
              <g id="Gruppe_550" data-name="Gruppe 550" clip-path="url(#clip-path-3)">
                <path id="Pfad_707" data-name="Pfad 707" d="M17.5,9.17c-.782.584-1.578,1.142-2.345,1.74-.405.312-.825.651-.63,1.235q-.271,2.052-.543,4.117c-.051.365-.109.73-.174,1.162a2.747,2.747,0,0,1-.572-.139A13.333,13.333,0,0,1,10.3,15.013c-.2-.193-.376-.392-.579-.571a.951.951,0,0,0-1.194-.133c-.861.471-1.737.93-2.591,1.408-.514.286-1,.6-1.506.883a6.886,6.886,0,0,1-.666.286,1.82,1.82,0,0,1,.224-1.268A32.243,32.243,0,0,0,5.267,12.1a.723.723,0,0,0-.369-.95c-.594-.372-1.173-.77-1.737-1.175A4.878,4.878,0,0,1,1.6,8.267a1.339,1.339,0,0,1-.08-.239.189.189,0,0,1,.022-.1A3.609,3.609,0,0,1,2.8,7.689c.63-.013,1.245-.106,1.875-.159a3.583,3.583,0,0,1,1.954.146,3.2,3.2,0,0,0,.384-.385c.376-.591.76-1.189,1.107-1.8C8.749,4.4,9.458,3.34,10.182,2.3c.094-.146.217-.266.355-.438.13.1.253.159.29.246.21.485.369.983.6,1.454.347.7.738,1.394,1.122,2.078.246.438.514.857.775,1.288.21.339.333.392.753.345a4.042,4.042,0,0,1,.746-.066c1.346.1,2.685.212,4.032.325a1.68,1.68,0,0,1,.318.113c-.051.133-.065.292-.159.365-.492.4-1,.784-1.513,1.162" transform="translate(-0.599 -0.79)" fill="#55476b"/>
                <path id="Pfad_708" data-name="Pfad 708" d="M18.663,7.467c.094-.073.109-.232.159-.365a1.68,1.68,0,0,0-.318-.113c-1.346-.113-2.685-.226-4.032-.325a4.042,4.042,0,0,0-.746.066c-.42.046-.543-.007-.753-.345-.261-.432-.528-.85-.775-1.288-.384-.684-.775-1.375-1.122-2.078-.232-.471-.391-.969-.6-1.454-.036-.086-.159-.146-.29-.246-.138.173-.261.292-.355.438C9.108,2.8,8.4,3.855,7.769,4.95c-.347.611-.731,1.209-1.107,1.8a3.2,3.2,0,0,1-.384.385,3.583,3.583,0,0,0-1.954-.146c-.63.053-1.245.146-1.875.159a3.609,3.609,0,0,0-1.259.239.189.189,0,0,0-.022.1,1.339,1.339,0,0,0,.08.239A4.878,4.878,0,0,0,2.811,9.432c.565.405,1.144.8,1.737,1.175a.723.723,0,0,1,.369.95,32.243,32.243,0,0,1-1.281,3.519,1.82,1.82,0,0,0-.224,1.268,6.886,6.886,0,0,0,.666-.286c.507-.286.992-.6,1.506-.883.854-.478,1.73-.936,2.591-1.408a.951.951,0,0,1,1.194.133c.2.179.384.378.579.571a13.333,13.333,0,0,0,2.939,2.271,2.747,2.747,0,0,0,.572.139c.065-.432.123-.8.174-1.162q.271-2.062.543-4.117c-.2-.584.224-.923.63-1.235.767-.6,1.564-1.155,2.345-1.74.514-.378,1.021-.764,1.513-1.162m1.325-.212a28.179,28.179,0,0,1-2.743,2.1,3.952,3.952,0,0,0-.521.365c-.362.272-.724.551-1.093.823a1.8,1.8,0,0,0-.89,1.355c-.051.857-.166,1.72-.253,2.576-.014.146-.014.286-.036.432-.087.711-.174,1.428-.29,2.138a5.432,5.432,0,0,1-.217.757,2.067,2.067,0,0,1-1.564-.518c-.521-.452-1.1-.857-1.65-1.282a7.652,7.652,0,0,1-1.375-1.3c-.333-.418-.471-.438-.948-.206-.615.3-1.216.611-1.81.936-.536.3-1.035.644-1.578.936-.514.272-1.057.5-1.585.744a1.34,1.34,0,0,1-.268.073c-.659.133-.992-.166-.8-.764.224-.691.514-1.361.767-2.045.384-1.029.76-2.065,1.115-3.035a1.007,1.007,0,0,0-.68-.671A5.544,5.544,0,0,1,1.088,8.5a5.285,5.285,0,0,0-.594-.777c-.536-.525-.13-1.215.6-1.182.282.007.565-.066.847-.053,1.325.066,2.628-.146,4.01-.179a10.022,10.022,0,0,0,.724-.863c.709-1.056,1.383-2.132,2.085-3.187C9.188,1.624,9.644,1,10.1.382a.451.451,0,0,1,.3-.133c.058,0,.159.106.174.179a15.363,15.363,0,0,0,1.484,3.347c.3.564.651,1.109.984,1.667a1.218,1.218,0,0,0,1.129.624c1.788.027,3.569.279,5.364.266a.873.873,0,0,1,.5.166.459.459,0,0,1,.014.7.267.267,0,0,1-.065.06" transform="translate(-0.249 -0.249)" fill="#55476b"/>
              </g>
            </g>
          </g>
        </g>
      </g>
    </g>
  </g>
</svg>
