<svg width="46" height="45" viewBox="0 0 46 45" fill="none" xmlns="http://www.w3.org/2000/svg">
<path d="M41.25 16.125C34.5458 16.5138 28.0981 18.8379 22.6875 22.8158C17.2769 18.8379 10.8292 16.5138 4.125 16.125V22.23C3.02916 22.2322 1.97903 22.6695 1.2055 23.4457C0.431971 24.222 -0.00163803 25.2736 4.65034e-06 26.3694V28.4402C4.65034e-06 30.7275 4.125 32.9942 4.125 32.9942V37.1336C9.60298 37.4862 14.8859 39.3025 19.4226 42.393C20.5684 43.1874 21.6592 44.0584 22.6875 45C23.7158 44.0584 24.8066 43.1874 25.9524 42.393C30.4891 39.3025 35.772 37.4862 41.25 37.1336V32.5796C42.3459 32.5775 43.396 32.1402 44.1695 31.3639C44.943 30.5877 45.3766 29.536 45.375 28.4402V26.3694C45.3766 25.2736 44.943 24.222 44.1695 23.4457C43.396 22.6695 42.3459 22.2322 41.25 22.23V16.125ZM22.6875 39.6829C18.4099 36.5479 13.4712 34.4341 8.25 33.5036V20.8193C12.2514 21.6254 16.0505 23.2258 19.4226 25.5259C20.5684 26.3203 21.6592 27.1913 22.6875 28.1329C23.7158 27.1913 24.8066 26.3203 25.9524 25.5259C29.3243 23.2251 33.1234 21.6239 37.125 20.8172V33.5036C31.9039 34.4341 26.9651 36.5479 22.6875 39.6829Z" fill="#E2EAF7"/>
<circle cx="22.6875" cy="12.375" r="10.625" stroke="#E2EAF7" stroke-width="3.5"/>
<ellipse cx="18.1875" cy="15.1875" rx="2.25" ry="1.6875" fill="#E2EAF7"/>
<ellipse cx="27.1875" cy="15.1875" rx="2.25" ry="1.6875" fill="#E2EAF7"/>
</svg>
