<svg width="30" height="30" viewBox="0 0 30 30" fill="none" xmlns="http://www.w3.org/2000/svg">
<g clip-path="url(#clip0_318_1251)">
<path d="M15 27.5C21.9036 27.5 27.5 21.9036 27.5 15C27.5 8.09644 21.9036 2.5 15 2.5C8.09644 2.5 2.5 8.09644 2.5 15C2.5 21.9036 8.09644 27.5 15 27.5Z" stroke="#E22E88" stroke-width="2.5" stroke-linecap="round" stroke-linejoin="round"/>
<path d="M17.5 20C16.7837 20.79 15.925 21.25 15 21.25C14.075 21.25 13.2163 20.79 12.5 20M11.25 14.375C10.8925 13.98 10.4625 13.75 10 13.75C9.5375 13.75 9.1075 13.98 8.75 14.375M21.25 14.375C20.8925 13.98 20.4625 13.75 20 13.75C19.5375 13.75 19.1075 13.98 18.75 14.375M15 2.5C14.3921 2.49998 13.7934 2.64774 13.2553 2.93054C12.7172 3.21334 12.2559 3.62271 11.9112 4.12339C11.5665 4.62406 11.3486 5.20103 11.2765 5.8046C11.2043 6.40817 11.2799 7.02024 11.4968 7.5881C11.7137 8.15595 12.0654 8.66257 12.5216 9.06431C12.9778 9.46604 13.5248 9.75086 14.1155 9.89422C14.7062 10.0376 15.3229 10.0352 15.9125 9.88725C16.5021 9.73931 17.0469 9.45026 17.5 9.045" stroke="#E22E88" stroke-width="2.5" stroke-linecap="round" stroke-linejoin="round"/>
</g>
<defs>
<clipPath id="clip0_318_1251">
<rect width="30" height="30" fill="white"/>
</clipPath>
</defs>
</svg>
