<svg width="36" height="36" viewBox="0 0 36 36" fill="none" xmlns="http://www.w3.org/2000/svg">
<path d="M4.5 6C4.5 4.35 5.85 3 7.5 3H28.5C29.2957 3 30.0587 3.31607 30.6213 3.87868C31.1839 4.44129 31.5 5.20435 31.5 6V27C31.5 27.7956 31.1839 28.5587 30.6213 29.1213C30.0587 29.6839 29.2957 30 28.5 30H7.5C6.70435 30 5.94129 29.6839 5.37868 29.1213C4.81607 28.5587 4.5 27.7956 4.5 27V6ZM7.5 9V27H28.5V9H7.5ZM10.5 0H13.5V3H10.5V0ZM22.5 0H25.5V3H22.5V0ZM10.5 13.5H13.5V16.5H10.5V13.5ZM10.5 19.5H13.5V22.5H10.5V19.5ZM16.5 13.5H19.5V16.5H16.5V13.5ZM16.5 19.5H19.5V22.5H16.5V19.5ZM22.5 13.5H25.5V16.5H22.5V13.5ZM22.5 19.5H25.5V22.5H22.5V19.5Z" fill="#E22E88"/>
</svg>
