<svg width="36" height="36" viewBox="0 0 36 36" fill="none" xmlns="http://www.w3.org/2000/svg">
<path d="M30.0938 29.1429H4.90625C3.29813 29.1429 2 27.8986 2 26.3572V9.64289C2 8.10146 3.29813 6.85718 4.90625 6.85718H30.0938C31.7019 6.85718 33 8.10146 33 9.64289V26.3572C33 27.8986 31.7019 29.1429 30.0938 29.1429ZM4.90625 8.71432C4.36375 8.71432 3.9375 9.12289 3.9375 9.64289V26.3572C3.9375 26.8772 4.36375 27.2857 4.90625 27.2857H30.0938C30.6362 27.2857 31.0625 26.8772 31.0625 26.3572V9.64289C31.0625 9.12289 30.6362 8.71432 30.0938 8.71432H4.90625Z" fill="#E22E88"/>
<path d="M17.5001 21.64C16.1439 21.64 14.9039 21.12 13.9739 20.1729L3.802 9.81005C3.43388 9.43862 3.45325 8.84433 3.84075 8.49147C4.22825 8.13862 4.84825 8.15719 5.21638 8.52862L15.3883 18.8915C16.4926 20.0243 18.5076 20.0243 19.612 18.8915L29.7839 8.54719C30.152 8.17576 30.772 8.15719 31.1595 8.51005C31.547 8.8629 31.5664 9.45719 31.1983 9.82862L21.0264 20.1915C20.0964 21.1386 18.8564 21.6586 17.5001 21.6586V21.64Z" fill="#E22E88"/>
</svg>
