<svg width="36" height="36" viewBox="0 0 36 36" fill="none" xmlns="http://www.w3.org/2000/svg">
<path d="M21.4792 19.9425L22.0682 19.3574L20.7003 17.9831L20.1139 18.5682L21.4792 19.9425ZM24.0431 19.112L26.5115 20.454L27.4351 18.7516L24.968 17.4108L24.0431 19.112ZM26.9856 23.12L25.1514 24.9451L26.5167 26.3182L28.3509 24.4943L26.9856 23.12ZM24.0328 25.5316C22.1599 25.7072 17.3161 25.5509 12.0694 20.3352L10.7028 21.7082C16.4275 27.4006 21.877 27.6796 24.2136 27.4613L24.0328 25.5316ZM12.0694 20.3352C7.06935 15.3623 6.2401 11.1811 6.13677 9.36634L4.20185 9.47614C4.33102 11.7598 5.3579 16.3943 10.7028 21.7082L12.0694 20.3352ZM13.8454 12.3527L14.2161 11.9833L12.8521 10.6102L12.4814 10.9783L13.8454 12.3527ZM14.5106 7.28805L12.8831 5.11289L11.3319 6.27539L12.9594 8.44926L14.5106 7.28805ZM7.40519 4.63884L5.37727 6.65384L6.74385 8.02818L8.77048 6.01318L7.40519 4.63884ZM13.1634 11.6655C12.4789 10.9783 12.4789 10.9783 12.4789 10.9809H12.4763L12.4724 10.9861C12.411 11.048 12.3561 11.1159 12.3084 11.1889C12.2386 11.2922 12.1624 11.4278 12.0978 11.5996C11.9406 12.0431 11.9014 12.5198 11.9841 12.983C12.1572 14.1003 12.9271 15.5767 14.8981 17.5374L16.2647 16.1631C14.4189 14.3289 13.9798 13.2129 13.8984 12.6859C13.8596 12.4353 13.8997 12.3113 13.9113 12.2829C13.9191 12.2657 13.9191 12.2631 13.9113 12.2752C13.8998 12.293 13.8868 12.3098 13.8726 12.3256L13.8596 12.3385L13.8467 12.3501L13.1634 11.6655ZM14.8981 17.5374C16.8705 19.4982 18.3546 20.2628 19.4732 20.4333C20.0454 20.5212 20.5066 20.4514 20.8566 20.321C21.0527 20.2493 21.2359 20.1463 21.3991 20.0161L21.4637 19.958L21.4727 19.9503L21.4766 19.9464L21.4779 19.9438C21.4779 19.9438 21.4792 19.9425 20.7959 19.2553C20.1113 18.5682 20.1152 18.5669 20.1152 18.5669L20.1178 18.5643L20.1204 18.5617L20.1281 18.5553L20.141 18.5423L20.1901 18.5036C20.2022 18.4958 20.1991 18.4967 20.1811 18.5062C20.1488 18.5178 20.0222 18.5578 19.7677 18.5191C19.233 18.4364 18.1092 17.9973 16.2647 16.1631L14.8981 17.5374ZM12.8831 5.11159C11.5656 3.35493 8.97714 3.07593 7.40519 4.63884L8.77048 6.01318C9.45764 5.32989 10.677 5.40093 11.3319 6.27539L12.8831 5.11159ZM6.13806 9.36764C6.11223 8.92072 6.3176 8.45314 6.74385 8.02947L5.37598 6.65514C4.68235 7.34489 4.13598 8.32139 4.20185 9.47614L6.13806 9.36764ZM25.1514 24.9451C24.7975 25.2991 24.4151 25.498 24.0341 25.5328L24.2136 27.4613C25.163 27.3722 25.9393 26.8943 26.518 26.3195L25.1514 24.9451ZM14.2161 11.9833C15.4884 10.7187 15.5827 8.72051 14.5119 7.28934L12.9606 8.45055C13.4812 9.14676 13.4037 10.06 12.8509 10.6115L14.2161 11.9833ZM26.5128 20.4553C27.5681 21.0288 27.7321 22.3799 26.9869 23.1213L28.3534 24.4943C30.0843 22.7726 29.5508 19.9012 27.4364 18.7529L26.5128 20.4553ZM22.0682 19.3587C22.5642 18.8653 23.3624 18.7438 24.0444 19.1133L24.9693 17.4121C23.5691 16.6501 21.8331 16.8606 20.7016 17.9843L22.0682 19.3587Z" fill="#E22E88"/>
</svg>
