<svg width="30" height="30" viewBox="0 0 30 30" fill="none" xmlns="http://www.w3.org/2000/svg">
<path d="M15 2.5C8.125 2.5 2.5 8.125 2.5 15V27.5H27.5V15C27.5 8.125 21.875 2.5 15 2.5ZM15 5C18.625 5 21.8 6.95 23.55 9.85C23.0125 9.9375 22.45 10 21.875 10C18.25 10 15.075 8.05 13.325 5.15C13.8625 5.0625 14.425 5 15 5ZM10.1 6.2875C9.31084 8.63796 7.68168 10.6143 5.525 11.8375C6.31416 9.48704 7.94332 7.51068 10.1 6.2875ZM5 14.825C8.25 13.6 10.8625 11.0875 12.175 7.8875C13.3474 9.3289 14.8264 10.4908 16.5043 11.2887C18.1823 12.0866 20.017 12.5004 21.875 12.5C22.8125 12.5 23.7125 12.3875 24.5875 12.2C24.85 13.0875 25 14.025 25 15C25 20.5125 20.5125 25 15 25C9.4875 25 5 20.5125 5 15V14.825ZM5 25V22.5C5.7125 23.4375 6.5625 24.2875 7.5 25H5ZM25 25H22.5C23.4375 24.2875 24.2875 23.4375 25 22.5V25ZM17.1875 16.25C17.1875 15.8356 17.3521 15.4382 17.6451 15.1451C17.9382 14.8521 18.3356 14.6875 18.75 14.6875C19.1644 14.6875 19.5618 14.8521 19.8549 15.1451C20.1479 15.4382 20.3125 15.8356 20.3125 16.25C20.3125 16.6644 20.1479 17.0618 19.8549 17.3549C19.5618 17.6479 19.1644 17.8125 18.75 17.8125C18.3356 17.8125 17.9382 17.6479 17.6451 17.3549C17.3521 17.0618 17.1875 16.6644 17.1875 16.25ZM9.6875 16.25C9.6875 15.8356 9.85212 15.4382 10.1451 15.1451C10.4382 14.8521 10.8356 14.6875 11.25 14.6875C11.6644 14.6875 12.0618 14.8521 12.3549 15.1451C12.6479 15.4382 12.8125 15.8356 12.8125 16.25C12.8125 16.6644 12.6479 17.0618 12.3549 17.3549C12.0618 17.6479 11.6644 17.8125 11.25 17.8125C10.8356 17.8125 10.4382 17.6479 10.1451 17.3549C9.85212 17.0618 9.6875 16.6644 9.6875 16.25Z" fill="#E22E88"/>
<path d="M12.7778 21.1111C13.6112 22.1296 15.7778 23.5555 17.7778 21.1111" stroke="#E22E88" stroke-width="1.5" stroke-linecap="round"/>
</svg>
